<svg xmlns="http://www.w3.org/2000/svg" xmlns:xlink="http://www.w3.org/1999/xlink" id="Layer_1" x="0" y="0" version="1.1" viewBox="0 0 1099.7 256" xml:space="preserve" style="enable-background:new 0 0 1099.7 256"><style type="text/css">.st0{fill:#ffeb4f}</style><path d="M1099.4,185.2c-1.5-4.5-3.5-8.8-6-12.8c-13.7-21.9-30.6-41.2-49-59.1c-3.4-3.3-7.3-5.1-12.1-4.8	c-3.9,0.2-7.7-0.3-11.6-0.5c-22.3-1.1-44.6-2.1-66.9-3.1c-18.9-0.8-37.9-1.6-56.8-2.5c0.5-0.4,1-0.8,1.4-1.2c0,0,0,0,0,0	c6.2-0.5,12.4-1.1,18.6-1.6c17-1.3,34-2.5,51.1-3.9c19.1-1.6,38.2-3.4,57.3-5c18.6-1.6,37.3-3.1,55.9-4.6c2.2-0.2,3.1-0.9,2.4-3.3	c-1.3-4.5-3.3-8.6-5.7-12.5c-13.5-21.6-29.8-40.9-48.3-58.3c-3.6-3.4-7.3-6.7-12.9-6.7c-30.7-0.1-61.4,0-92.1-0.5	c-43.3-0.7-86.7-0.1-130-0.8c-47.9-0.8-95.9,0.1-143.9-0.7c-41.4-0.8-82.9,0-124.4-0.7c-44.2-0.8-88.4,0-132.6-0.8	c-41.2-0.7-82.4,0-123.6-0.7c-46.9-0.8-93.9-0.1-140.9-0.7C89.1-0.2,49,0.1,9,0C-1.7,0-1.8,0,3.1,9.8C10.7,25,21.4,38,32.3,50.8	c3,3.6,6.1,7.1,9.9,11.3c-5.8,0-10.6,0-15.4,0c-2.4,0-3.4,0.8-2.6,3.5c1.2,3.8,2.7,7.5,4.8,10.9c13.7,23.1,31.5,43,50.6,61.7	c2.7,2.7,6.1,4.4,10,4.6c17.4,0.8,34.9,1.5,52.3,2.3c13.7,0.6,27.4,1.1,41.1,1.7c1.3,0.1,2.6,0.1,3.8,1.1c-17.1,1.3-34,2.6-50.9,4	c-17.8,1.4-35.5,3-53.2,4.4c-23.5,1.8-46.9,4.3-70.3,6.7c-3.1,0.3-3.2,1.6-2.4,3.9c1.4,4.1,3.3,8.1,5.6,11.8	C29,200.9,46,220.2,64.8,238c2.7,2.5,5.6,5.1,9.6,5.3c4,0.2,8,0.5,12,0.5c27.3,0.2,54.7,0.8,82,1.4c29.3,0.7,58.7,1.1,88,1.6	c28.8,0.5,57.7,1,86.5,1.5c15.5,0.3,31,0.1,46.4,0.6c28.6,0.9,57.2,1.2,85.7,1.6c27.8,0.4,55.7,0.8,83.5,1.5	c29.5,0.7,58.9,1.1,88.4,1.6c28.5,0.5,56.9,1.1,85.4,1.4c30.2,0.3,60.4,1.3,90.6,1c0.7,0,1.5,0,2.2,0c1.9,0.1,2.1-1,1.7-2.4	c-0.4-1.4-1-2.8-1.6-4.2c-4.5-10.4-10.9-19.6-17.8-28.4c-4.9-6.2-10-12.3-15.3-18.8c6.3-0.2,12.1-0.4,17.9-0.7	c17.3-1,34.6-1.6,52-2.3c17.4-0.7,34.9-1.5,52.3-2.3c16.2-0.7,32.4-1.5,48.6-2.2c23.3-1,46.6-2,69.9-3c15.2-0.6,30.4-1,45.6-1.8	c6-0.3,12-0.5,18-0.7C1099.2,189.1,1100.4,188.2,1099.4,185.2z M889.9,102.3c-0.1,0-0.1,0.1-0.2,0.1	C889.7,102.4,889.7,102.4,889.9,102.3C889.8,102.3,889.8,102.3,889.9,102.3z M889.6,102.5c0.1,0,0.2,0,0.3,0c0,0-0.1,0-0.1,0.1	C890.1,102.8,889.5,102.6,889.6,102.5z" class="st0"/><circle cx="229.9" cy="44.8" r="9.7"/><circle cx="259" cy="44.8" r="9.7"/><circle cx="288" cy="44.8" r="9.7"/><circle cx="258.2" cy="72" r="9.7"/><circle cx="287.2" cy="72" r="9.7"/><circle cx="316.3" cy="72" r="9.7"/><circle cx="285.5" cy="99.3" r="9.7"/><circle cx="314.5" cy="99.3" r="9.7"/><circle cx="343.6" cy="99.3" r="9.7"/><circle cx="312.8" cy="126.6" r="9.7"/><circle cx="341.8" cy="126.6" r="9.7"/><circle cx="370.8" cy="126.6" r="9.7"/><circle cx="285.5" cy="153.8" r="9.7"/><circle cx="314.5" cy="153.8" r="9.7"/><circle cx="343.6" cy="153.8" r="9.7"/><circle cx="258.2" cy="181.2" r="9.7"/><circle cx="287.2" cy="181.2" r="9.7"/><circle cx="316.3" cy="181.2" r="9.7"/><circle cx="229.9" cy="208.5" r="9.7"/><circle cx="259" cy="208.5" r="9.7"/><circle cx="288" cy="208.5" r="9.7"/><polygon points="407.6 35.1 337.1 35.1 430.1 127.5 337.1 219.9 407.6 219.9 500 127.5"/><g><path d="M583.3,37.3h14.4L582,105.1h-25.4l-15.7-67.7h14.4l11.8,55.8h4.5L583.3,37.3z"/><path d="M653.9,97.8c-4.2,5.6-11.5,8.4-21.8,8.4c-10.3,0-17.5-2.8-21.8-8.4c-4.2-5.6-6.3-14.4-6.3-26.3s2.1-20.8,6.3-26.6 c4.2-5.8,11.5-8.7,21.8-8.7c10.3,0,17.5,2.9,21.8,8.7c4.2,5.8,6.3,14.7,6.3,26.6S658.1,92.2,653.9,97.8z M621.1,89.1 c2,3.5,5.6,5.2,11,5.2c5.4,0,9-1.7,11-5.2c2-3.5,2.9-9.3,2.9-17.5c0-8.2-1-14.2-3-17.9c-2-3.7-5.6-5.6-11-5.6c-5.3,0-9,1.9-11,5.6 c-2,3.7-3,9.7-3,17.9C618.2,79.7,619.2,85.6,621.1,89.1z"/><path d="M666.5,49.5V37.3h49.8v12.1h-17.9v55.6h-13.7V49.5H666.5z"/><path d="M593.5,217.3c-4.2,5.6-11.5,8.4-21.8,8.4c-10.3,0-17.5-2.8-21.8-8.4c-4.2-5.6-6.3-14.4-6.3-26.3c0-12,2.1-20.8,6.3-26.6 c4.2-5.8,11.5-8.7,21.8-8.7c10.3,0,17.5,2.9,21.8,8.7c4.2,5.8,6.3,14.7,6.3,26.6C599.9,202.9,597.8,211.7,593.5,217.3z M560.8,208.6c2,3.5,5.6,5.2,11,5.2c5.4,0,9-1.7,11-5.2c2-3.5,2.9-9.3,2.9-17.5c0-8.2-1-14.2-3-17.9c-2-3.7-5.6-5.6-11-5.6 c-5.3,0-9,1.9-11,5.6c-2,3.7-3,9.7-3,17.9C557.8,199.2,558.8,205.1,560.8,208.6z"/><path d="M612.9,224.5v-67.7h23.2l16.3,55.8h1v-55.8h13.7v67.7h-22.6l-16.9-55.8h-1v55.8H612.9z"/><path d="M711.4,200.2v-11.9h19.7v35.2c-9.5,1.5-17.2,2.3-23.1,2.3c-10.6,0-17.8-2.8-21.8-8.5c-4-5.6-5.9-14.6-5.9-26.9 c0-12.3,2.1-21.1,6.2-26.6c4.1-5.4,11.1-8.2,21-8.2c6.2,0,12.8,0.7,20,2.1l3.6,0.7l-0.4,10.7c-8-0.9-14.5-1.3-19.6-1.3 c-5.1,0-8.6,0.6-10.7,1.8c-2.1,1.2-3.6,3.4-4.5,6.6c-1,3.2-1.4,8.7-1.4,16.5c0,7.8,1,13.3,2.9,16.4c1.9,3.1,5.9,4.7,11.9,4.7 l8.3-0.4v-13.1H711.4z"/></g></svg>