<svg xmlns="http://www.w3.org/2000/svg" xmlns:svgjs="http://svgjs.com/svgjs" xmlns:xlink="http://www.w3.org/1999/xlink" style="enable-background:new 0 0 512 512" width="512" height="512" x="0" y="0" version="1.1" viewBox="0 0 67 67" xml:space="preserve"><g><g xmlns="http://www.w3.org/2000/svg"><path fill="#fc0" d="m35.71081 24.75701v30.41477c0 1.41933-1.14944 2.56866-2.56871 2.56866h-25.23732c-1.41927 0-2.56872-1.14933-2.56872-2.56866v-30.41477c0-1.41921 1.14945-2.56866 2.56872-2.56866h25.23732c1.41927 0 2.56871 1.14945 2.56871 2.56866z" data-original="#ffffff"/><path fill="#fc0" d="m29.28392 21.53555v3.63662h-17.51776v-3.63662c0-1.28515 1.03899-2.3242 2.33322-2.3242h2.53382c.01825-2.14185 1.74994-3.86448 3.89185-3.86448 2.14185 0 3.8736 1.72263 3.89179 3.86448h2.54294c1.28509-.00001 2.32414 1.03904 2.32414 2.3242z" data-original="#ffffff"/><path fill="#000" d="m28.71192 38.57269v-2.51001l-1.85999-.41003c-.15002-.57996-.38-1.12-.67004-1.63l1.02002-1.60999-1.77002-1.77002-1.60999 1.02002c-.51001-.28992-1.04999-.52002-1.63-.67004l-.40997-1.85986h-2.51001l-.40997 1.85986c-.58002.15002-1.13.38013-1.63.67004l-1.61005-1.02002-1.77997 1.77002 1.02997 1.60999c-.29999.51001-.52997 1.05005-.67999 1.63l-1.85999.41003v2.51001l1.85999.40991c.15002.59009.38 1.13013.67999 1.63013l-1.02997 1.60986 1.77997 1.78003 1.61005-1.03003c.5.30005 1.04999.52002 1.63.67004l.40997 1.87h2.51001l.40997-1.87c.58002-.15002 1.12-.37 1.63-.67004l1.60999 1.03003 1.77002-1.78003-1.02002-1.60986c.29004-.5.52002-1.05005.67004-1.63013zm-8.19 2.53002c-2.09003 0-3.78003-1.69006-3.78003-3.78003 0-2.09009 1.69-3.79004 3.78003-3.79004s3.78998 1.69995 3.78998 3.79004c0 2.08997-1.69995 3.78003-3.78998 3.78003z" data-original="#8f9fff"/><path fill="#fc0" d="m63.59405 16.46089v13.4033c0 1.1093-.89951 1.99899-1.999 1.99899h-20.70956c-1.09942 0-1.999-.88969-1.999-1.99899v-13.4033c0-1.09942.89957-1.99899 1.999-1.99899h20.70956c1.09948-.00001 1.999.89957 1.999 1.99899z" data-original="#ffffff"/><path fill="#fc0" d="m63.59405 16.38097v2.95847l-12.35378 4.80752-12.35378-4.80752v-2.95847c0-1.05953.85955-1.91908 1.91902-1.91908h20.85951c1.06947 0 1.92903.85956 1.92903 1.91908z" data-original="#ffffff"/><path fill="#000" d="m49.561 22.128h3.358v4.038h-3.358z" data-original="#8f9fff"/><path fill="#fc0" d="m57.02673 14.46071h-9.41321v-2.25174c0-.87942.71291-1.59233 1.59233-1.59233h6.22855c.87942 0 1.59233.71291 1.59233 1.59233z" data-original="#ffffff"/><path fill="#fc0" d="m47.30679 47.17247h-18.88062l-6.00726 3.11409 6.00726 3.11414h18.88062c1.71988 0 3.11411-1.39424 3.11411-3.11411v-.00001c0-1.71987-1.39424-3.11411-3.11411-3.11411z" data-original="#ffffff"/><path fill="#000" d="m28.50915 47.17245h-.08299l-6.00725 3.11413 6.00725 3.11412h.08299z" data-original="#8f9fff"/><g fill="#2a44e2"><path fill="#000" d="m35.44771 2.08438c5.97217.3418 11.68994 2.33398 16.53613 5.76074.22123.1582.53661.10782.69678-.11914.15967-.22559.10596-.53809-.11963-.69727-4.99902-3.53516-10.89697-5.58984-17.05566-5.94238-.27148-.03027-.51221.19434-.52783.4707-.01612.2754.19482.51172.47021.52735z" data-original="#2a44e2"/><path fill="#000" d="m65.57906 38.21524c-.27344-.04004-.5293.1416-.57275.41504-.30762 1.91992-.79297 3.81348-1.44141 5.63086-.09326.25977.04248.5459.30273.63867.24765.09205.54358-.0347.63867-.30273.66943-1.87402 1.16992-3.82813 1.4873-5.80859.04395-.27247-.14159-.52931-.41454-.57325z" data-original="#2a44e2"/><path fill="#000" d="m61.51021 49.84024c-.23535-.14355-.54346-.06934-.68701.16602-5.42529 8.89453-14.90869 14.46875-25.36768 14.91016-.27588.01172-.49023.24512-.47852.52148.01123.26855.23291.47852.49902.47852h.02148c10.79346-.45605 20.58008-6.20899 26.1792-15.38868.14406-.23633.06935-.54395-.16649-.6875z" data-original="#2a44e2"/><path fill="#000" d="m6.22261 17.39102c.2392.14409.54501.06495.68652-.16797 1.89502-3.12402 4.2544-5.86719 7.01221-8.15332.2124-.17578.2417-.49121.06543-.7041-.17627-.21191-.49121-.24219-.7041-.06543-2.84326 2.35742-5.27539 5.18457-7.22852 8.40332-.14306.23633-.06787.54395.16846.6875z" data-original="#2a44e2"/><path fill="#000" d="m17.14107 6.73379c.95996-.60547 1.9585-1.15723 2.96826-1.6416.24902-.12012.354-.41895.23438-.66699-.12012-.24902-.41846-.35645-.66699-.23535-1.04443.50098-2.07666 1.07227-3.06885 1.69824-.23389.14746-.30371.45605-.15625.68945.1505.23772.46247.3013.68945.15625z" data-original="#2a44e2"/><circle cx="20.525" cy="18.885" r="1.374" fill="#000" data-original="#2a44e2"/><path fill="#000" d="m22.2682 45.6246.35004-1.58002c.41998-.13.81-.28998 1.19-.48999l1.34998.87c.20001.13.46002.10004.63-.07001l1.77002-1.77997c.15997-.16003.19-.42004.06995-.62l-.87-1.36005c.20001-.37994.37-.77997.49005-1.19l1.56995-.33997c.23004-.04999.39001-.26001.39001-.48999v-2.51c0-.23999-.15997-.44-.39001-.48999l-1.56995-.35004c-.12006-.39996-.28003-.78998-.49005-1.17999l.87-1.35999c.12006-.20001.09003-.46002-.06995-.63l-1.77002-1.77002c-.16998-.15997-.42999-.19-.62-.06l-1.37.86005c-.38-.20001-.78003-.37-1.17999-.49005l-.35004-1.56995c-.04999-.23004-.25-.39001-.48999-.39001h-2.51c-.22998 0-.42999.15997-.47998.39001l-.35004 1.56995c-.40997.12006-.81.29004-1.18994.49005l-1.36005-.86005c-.20001-.13-.45001-.09998-.62.06l-1.77997 1.77002c-.16998.16998-.19.42999-.07001.63l.87 1.35999c-.20001.38-.37.78003-.5 1.17999l-1.56.35004c-.22998.04999-.40002.25-.40002.48999v2.51001c0 .22998.17004.44.40002.48999l1.56.33997c.13.41003.29999.81006.5 1.19l-.87 1.36005c-.12.19995-.09998.45996.07001.62l1.77997 1.77997c.16998.17004.42999.20001.62.07001l1.36005-.87c.37.20001.76996.35999 1.18994.48999l.35004 1.58002c.04999.22998.25.39001.47998.39001h2.51001c.23999-.00001.44-.16004.48999-.39002zm-.56-2.09003-.33002 1.48004h-1.69995l-.33002-1.48004c-.03998-.17999-.17999-.32996-.35999-.38-.55005-.13995-1.06-.34998-1.5-.60999-.16003-.09998-.37-.08997-.53003.01001l-1.27002.81-1.20996-1.21002.82001-1.26996c.09998-.16003.09998-.37 0-.53003-.28003-.46997-.48999-.95996-.62-1.48999-.04999-.19-.19-.33002-.38-.37l-1.47003-.32001v-1.70996l1.47003-.32001c.19-.04004.33002-.17999.38-.37.13-.52002.33997-1.01001.62-1.5.09998-.16003.09998-.36005 0-.52002l-.82001-1.27002 1.20996-1.20996 1.28003.81c.15002.09998.34998.09998.51001.00995.47998-.26996.97998-.47998 1.51001-.61999.17999-.04999.32001-.19.35999-.37l.33002-1.46997h1.69995l.33002 1.46997c.04004.17999.17999.32001.35999.37.51001.14001 1.01001.34003 1.51001.61999.16003.10004.35999.09003.51001-.00995l1.27002-.80005 1.20996 1.20001-.81 1.27002c-.09998.15997-.09998.35999-.00995.52002.27997.5.48999.98999.62 1.5.04999.19.19.32996.38.37l1.45996.32001v1.70996l-1.45996.32001c-.19.03998-.33002.17999-.38.35999-.14001.53003-.34003 1.03003-.62 1.51001-.09003.16003-.09003.35999.00995.52002l.81 1.26996-1.20996 1.21002-1.27002-.81c-.15002-.09998-.35999-.10999-.52002-.01001-.46997.27002-.95996.47003-1.5.60999-.17999.05005-.31995.20001-.35999.38z" data-original="#2a44e2"/><path fill="#000" d="m20.5182 33.03457c-2.35999 0-4.27997 1.92004-4.27997 4.29004 0 2.35999 1.91998 4.27997 4.27997 4.27997 2.37 0 4.29004-1.91998 4.29004-4.27997 0-2.36999-1.92004-4.29004-4.29004-4.29004zm0 7.57001c-1.79999 0-3.27997-1.46997-3.27997-3.27997 0-1.82001 1.47998-3.29004 3.27997-3.29004 1.82001 0 3.29004 1.47003 3.29004 3.29004 0 1.81-1.47003 3.27997-3.29004 3.27997z" data-original="#2a44e2"/><path fill="#000" d="m64.09822 29.86459v-10.52997-2.95001c0-1.28066-.9849-2.32568-2.25-2.41004-.06-.00995-.12-.00995-.17999-.00995h-4.14001v-1.76001c0-1.15002-.94-2.09003-2.09003-2.09003h-5.47601c-4.63458-3.19775-10.23621-5.08978-16.28058-5.08978-11.54663 0-21.50189 6.85162-26.07269 16.69299-1.55194.15143-2.77301 1.44836-2.77301 3.03943v30.41406c0 1.69238 1.37646 3.06934 3.06885 3.06934h10.69769c4.38928 2.71716 9.5484 4.30371 15.07916 4.30371 15.8584 0 28.75977-12.90137 28.75977-28.75977 0-.5202-.03625-1.03149-.06567-1.54449.00726-.00226.01526-.00317.02252-.00549.97997-.33996 1.7-1.26995 1.7-2.36999zm-1 0c0 .83002-.67999 1.5-1.5 1.5h-20.71002c-.82996 0-1.5-.66998-1.5-1.5v-9.79999l9.67004 3.77002v2.32996c0 .28003.22998.5.5.5h3.35999c.27997 0 .5-.21997.5-.5v-2.32996l9.67999-3.77002zm-13.03998-7.23999h2.35999c0 .62417 0 3.18324 0 3.03998h-2.35999c0-.37751 0-2.24801 0-3.03998zm13.03998-6.15997v2.52997l-9.67999 3.77002v-.64002c0-.27002-.22003-.5-.5-.5h-3.35999c-.27002 0-.5.22998-.5.5v.64001l-9.67004-3.77001v-2.52997c0-.83002.67004-1.5 1.5-1.5h20.71002c.82001 0 1.5.66998 1.5 1.5zm-6.57001-4.26001v1.76001h-8.40997v-1.76001c0-.60004.48999-1.09003 1.08997-1.09003h6.22998c.60003 0 1.09002.48999 1.09002 1.09003zm-50.69232 42.96667v-30.41406c0-1.14063.92822-2.06934 2.06885-2.06934h3.36346v2.48669c0 .27002.22003.5.5.5h17.52002c.27002 0 .5-.22998.5-.5v-2.48669h3.35382c1.14063 0 2.06885.92871 2.06885 2.06934v21.91736h-6.78266c-.2569 0 .14404-.1153-6.24005 3.16998-.16998.08002-.26996.26001-.26996.44 0 .19.09998.36005.26996.45001 3.49326 1.79765 6.4477 3.38789 6.32001 3.16998h6.7027v1.26672c0 1.14063-.92822 2.06934-2.06885 2.06934h-25.2373c-1.14063.00001-2.06885-.9287-2.06885-2.06933zm6.43231-30.4967v-3.14001c0-1 .82001-1.81995 1.83002-1.81995h2.53998c.27002 0 .48999-.22003.5-.5.01001-1.86005 1.53003-3.37006 3.39001-3.37006 1.84998 0 3.37 1.51001 3.39001 3.37006 0 .27997.21997.5.5.5h2.53998c1.01001 0 1.83002.81995 1.83002 1.81995v3.14001zm16.73999 28.22998v-1.33386h20.57178c-.00067.00122-.0011.00269-.00177.00391-.45001.79999-1.29999 1.32996-2.26996 1.32996h-18.30005zm-1-.27997-4.5-2.34003 4.5-2.32996zm21.90015-2.05389h-20.90015v-2.89612h18.30005c1.44 0 2.60999 1.16998 2.60999 2.60999 0 .09869-.00965.18768-.00989.28613zm-16.22675 10.97363c-4.73834 0-9.19782-1.20172-13.10431-3.30371h12.56476c1.69238 0 3.06885-1.37695 3.06885-3.06934v-1.26672h11.09735c2.02999 0 3.60999-1.67303 3.60999-3.62 0-1.98999-1.62-3.60999-3.60999-3.60999h-11.09735v-21.91735c0-1.69238-1.37646-3.06934-3.06885-3.06934h-3.35382v-.15332c0-1.56-1.27002-2.81995-2.83002-2.81995h-2.07c-.26996-2.18005-2.13-3.87006-4.35999-3.87006-2.23999 0-4.09998 1.69-4.35999 3.87006h-2.07001c-1.56 0-2.83002 1.25995-2.83002 2.81995v.15332h-2.54112c4.50409-9.2572 13.98578-15.66309 24.95453-15.66309 5.40906 0 10.45105 1.57068 14.72375 4.25739-.76239.31342-1.28711 1.05774-1.28711 1.92242v1.76001h-6.31c-1.34969 0-2.42004 1.07764-2.42004 2.41998v13.47998c0 1.38 1.12 2.5 2.5 2.5h20.50836c.02612.47052.0448.94299.0448 1.41998 0 15.30665-12.45312 27.75978-27.75977 27.75978z" data-original="#2a44e2"/><path fill="#000" d="m1.49995 37.28848c-.27637 0-.5.22363-.5.5v8.26953c0 .27637.22363.5.5.5s.5-.22363.5-.5v-8.26953c0-.27637-.22363-.5-.5-.5z" data-original="#2a44e2"/><path fill="#000" d="m1.49995 31.3627c-.27637 0-.5.22363-.5.5v2.53906c0 .27637.22363.5.5.5s.5-.22363.5-.5v-2.53906c0-.27637-.22363-.5-.5-.5z" data-original="#2a44e2"/><path fill="#000" d="m55.86226 34.32266h-6.16699c-.27637 0-.5.22363-.5.5s.22363.5.5.5h6.16699c.27637 0 .5-.22363.5-.5s-.22363-.5-.5-.5z" data-original="#2a44e2"/><path fill="#000" d="m46.87935 34.32266h-1.97705c-.27637 0-.5.22363-.5.5s.22363.5.5.5h1.97705c.27637 0 .5-.22363.5-.5s-.22363-.5-.5-.5z" data-original="#2a44e2"/></g></g></g></svg>