<?xml version="1.0"?>
<svg xmlns="http://www.w3.org/2000/svg" xmlns:xlink="http://www.w3.org/1999/xlink" xmlns:svgjs="http://svgjs.com/svgjs" version="1.1" width="512" height="512" x="0" y="0" viewBox="0 0 67 67" style="enable-background:new 0 0 512 512" xml:space="preserve" class=""><g><g xmlns="http://www.w3.org/2000/svg"><g><path d="m24.14425 54.01683h-18.13902v-4.82313c0-2.08187 1.68769-3.76956 3.76956-3.76956h10.5999c2.08187 0 3.76956 1.68769 3.76956 3.76956z" fill="#ffcc00" data-original="#ffffff" style="" class=""/><path d="m18.08353 42.17842v3.16897c0 1.64184-1.33286 2.97475-2.97475 2.97475-1.64184 0-2.96591-1.33291-2.96591-2.97475v-3.16897z" fill="#ffcc00" data-original="#ffffff" style="" class=""/><g><path d="m22.41897 37.18758c0 .98272-.79455 1.78773-1.78773 1.78773h-.05226c-.33455 2.71813-2.6554 4.81948-5.46765 4.81948-2.79132 0-5.10177-2.07002-5.45725-4.75675-.04179.0104-.09405.0104-.13585.0104-.98272 0-1.78773-.80495-1.78773-1.78767 0-.99318.80501-1.79819 1.78773-1.79819.02087 0 .05226 0 .07312.01047v-4.2131h11.03988v4.13992c.9932-.00002 1.78774.79453 1.78774 1.78771z" fill="#ffcc00" data-original="#ffffff" style="" class=""/><path d="m21.85619 33.77247c0 .64458-.08821 1.27559-.26463 1.86588l-1.58088 1.09917v-2.96505l-2.65976-2.58509-7.34815 2.58509v2.87684l-1.35025-.94988c-.18996-.61067-.28496-1.25525-.28496-1.92696 0-3.72497 3.01934-6.74431 6.74432-6.74431s6.74431 3.01934 6.74431 6.74431z" fill="#000000" data-original="#8f9fff" style="" class=""/><g><g><circle cx="12.815" cy="36.114" fill="#000000" r=".732" data-original="#8f9fff" style="" class=""/></g><g><circle cx="17.335" cy="36.114" fill="#000000" r=".732" data-original="#8f9fff" style="" class=""/></g></g><g><path d="m12.94229 39.15469c.22992.96746 1.09454 1.68948 2.13241 1.68948 1.03795 0 1.90257-.72202 2.13249-1.68948z" fill="#000000" data-original="#8f9fff" style="" class=""/></g></g></g><g><path d="m61.09212 54.01683h-18.13902v-4.82313c0-2.08187 1.68769-3.76956 3.76956-3.76956h10.5999c2.08187 0 3.76956 1.68769 3.76956 3.76956z" fill="#ffcc00" data-original="#ffffff" style="" class=""/><path d="m55.0314 42.17842v3.16897c0 1.64184-1.33285 2.97475-2.97474 2.97475-1.64184 0-2.96591-1.33291-2.96591-2.97475v-3.16897z" fill="#ffcc00" data-original="#ffffff" style="" class=""/><g><path d="m59.36684 37.18758c0 .98272-.79455 1.78773-1.78773 1.78773h-.05226c-.33455 2.71813-2.6554 4.81948-5.46764 4.81948-2.79132 0-5.10177-2.07002-5.45725-4.75675-.04179.0104-.09405.0104-.13585.0104-.98272 0-1.78773-.80495-1.78773-1.78767 0-.99318.80501-1.79819 1.78773-1.79819.02087 0 .05226 0 .07313.01047v-4.2131h11.03988v4.13992c.99318-.00002 1.78772.79453 1.78772 1.78771z" fill="#ffcc00" data-original="#ffffff" style="" class=""/><path d="m58.80406 33.77247c0 .64458-.08821 1.27559-.26463 1.86588l-1.58088 1.09917v-2.96505l-2.65976-2.58509-7.34815 2.58509v2.87684l-1.35025-.94988c-.18996-.61067-.28496-1.25525-.28496-1.92696 0-3.72497 3.01934-6.74431 6.74432-6.74431s6.74431 3.01934 6.74431 6.74431z" fill="#000000" data-original="#8f9fff" style="" class=""/><g><g><circle cx="49.762" cy="36.114" fill="#000000" r=".732" data-original="#8f9fff" style="" class=""/></g><g><circle cx="54.283" cy="36.114" fill="#000000" r=".732" data-original="#8f9fff" style="" class=""/></g></g><g><path d="m49.89016 39.15469c.22992.96746 1.09454 1.68948 2.13241 1.68948 1.03795 0 1.90258-.72202 2.1325-1.68948z" fill="#000000" data-original="#8f9fff" style="" class=""/></g></g></g><g><path d="m42.14827 28.49614h-18.13902v-4.82314c0-2.08187 1.68769-3.76956 3.76956-3.76956h10.59991c2.08187 0 3.76956 1.68769 3.76956 3.76956v4.82314z" fill="#ffcc00" data-original="#ffffff" style="" class=""/><path d="m36.08755 16.65773v3.16897c0 1.64184-1.33286 2.97474-2.97475 2.97474-1.64184 0-2.96591-1.33291-2.96591-2.97474v-3.16897z" fill="#ffcc00" data-original="#ffffff" style="" class=""/><g><path d="m40.42299 11.66689c0 .98272-.79455 1.78773-1.78773 1.78773h-.05226c-.33455 2.71813-2.6554 4.81948-5.46765 4.81948-2.79132 0-5.10177-2.07002-5.45725-4.75675-.04179.0104-.09405.0104-.13585.0104-.98272 0-1.78773-.80495-1.78773-1.78767 0-.99318.80501-1.79819 1.78773-1.79819.02087 0 .05226 0 .07313.01046v-4.2131h11.03988v4.13991c.99318 0 1.78773.79454 1.78773 1.78773z" fill="#ffcc00" data-original="#ffffff" style="" class=""/><path d="m39.86021 8.25178c0 .64459-.08821 1.27559-.26463 1.86588l-1.58088 1.09917v-2.96505l-2.65976-2.58509-7.34815 2.58509v2.87684l-1.35025-.94988c-.18996-.61067-.28496-1.25525-.28496-1.92696 0-3.72497 3.01934-6.74431 6.74431-6.74431s6.74432 3.01934 6.74432 6.74431z" fill="#000000" data-original="#8f9fff" style="" class=""/><g><g><circle cx="30.819" cy="10.593" fill="#000000" r=".732" data-original="#8f9fff" style="" class=""/></g><g><circle cx="35.339" cy="10.593" fill="#000000" r=".732" data-original="#8f9fff" style="" class=""/></g></g><g><path d="m30.94631 13.634c.22992.96746 1.09454 1.68949 2.13242 1.68949 1.03795 0 1.90257-.72203 2.13249-1.68949z" fill="#000000" data-original="#8f9fff" style="" class=""/></g></g></g><g fill="#2a44e2"><path d="m12.42421 11.70116c.92969-.875 1.9209-1.69629 2.94482-2.44238.22314-.16309.27246-.47559.10986-.69824-.16357-.22363-.4751-.27246-.69873-.11035-1.05762.77051-2.08105 1.61914-3.04102 2.52246-.20117.18945-.21094.50586-.02197.70703.18985.20112.50595.21039.70704.02148z" fill="#000000" data-original="#2a44e2" style="" class=""/><path d="m9.47841 14.08983c-.21484-.17383-.52881-.13965-.70313.07422-4.51904 5.58008-7.07373 12.5459-7.19336 19.61523-.00439.27637.21533.50391.4917.50879h.0083c.27246 0 .49512-.21875.5-.49121.11572-6.84765 2.59131-13.59668 6.9707-19.0039.17384-.21484.14063-.5293-.07421-.70313z" fill="#000000" data-original="#2a44e2" style="" class=""/><path d="m43.64931 63.38085c-8.32568 2.82715-17.9165 1.90039-25.6543-2.47852-.24023-.13672-.54492-.05176-.68115.18945-.13623.24023-.05127.54492.18896.68164 4.9292 2.78809 10.58643 4.21875 16.21729 4.21875 3.4873 0 6.96484-.54883 10.25049-1.66406.26172-.08887.40137-.37305.31299-.63477-.08887-.26073-.37159-.39745-.63428-.31249z" fill="#000000" data-original="#2a44e2" style="" class=""/><path d="m64.9164 33.82225c-.00146 0-.00342 0-.00537 0-.27588.00293-.49756.22949-.49463.50488.01514 1.40137-.06641 2.8125-.24121 4.19531-.03467.27344.15918.52344.43311.55859.26493.03613.52335-.15314.55908-.43359.18066-1.42676.26416-2.88477.24902-4.33008-.00293-.2744-.22608-.49511-.5-.49511z" fill="#000000" data-original="#2a44e2" style="" class=""/><path d="m64.58241 30.0078c.27246-.04395.45752-.30078.41357-.57324-1.00781-6.21191-3.71387-11.92383-7.8252-16.51758-.18359-.20508-.49951-.22363-.70605-.04004-.20557.18457-.22314.50098-.03906.70605 3.98389 4.45215 6.60596 9.98926 7.58301 16.01172.04573.27992.31339.45958.57373.41309z" fill="#000000" data-original="#2a44e2" style="" class=""/><path d="m59.27986 45.42119c1.4743-3.40533 2.30548-7.15131 2.30548-11.0921 0-13.15033-9.09882-24.19867-21.32397-27.2182-.55005-3.4527-3.53979-6.10309-7.14526-6.10309-3.69196 0-6.74188 2.77808-7.18378 6.35199-11.76532 3.33075-20.42023 14.14637-20.42023 26.9693 0 3.9408.83459 7.68488 2.30945 11.08997-1.36896.71185-2.31628 2.12732-2.31628 3.77429v4.82324c0 .27637.22363.5.5.5h8.12463c5.04272 4.85321 11.88409 7.84961 19.41882 7.84961s14.3761-2.9964 19.41882-7.84961h8.12463c.27637 0 .5-.22363.5-.5v-4.82324c.00001-1.64533-.94555-3.05957-2.31231-3.77216zm1.30548-11.0921c0 3.81409-.80554 7.43988-2.23718 10.73334-.33026-.08221-.67023-.13861-1.02551-.13861h-1.79102v-1.75818c1.22534-.87115 2.1275-2.17505 2.42676-3.72131 1.08203-.18164 1.90869-1.12402 1.90869-2.25684 0-.68164-.3089-1.28522-.78357-1.70459.13654-.5484.22058-1.11841.22058-1.71045 0-3.99414-3.24951-7.24414-7.24414-7.24414s-7.24463 3.25-7.24463 7.24414c0 .59082.0871 1.1601.22461 1.70996-.52161.41937-.86133 1.05615-.86133 1.77832 0 1.16406.87402 2.12793 2 2.27051.31311 1.50781 1.20703 2.78058 2.41211 3.63605v1.75653h-1.86816c-1.26208 0-2.38611.56104-3.16846 1.43463-.03497-.05182-.0791-.09869-.13428-.1358l-9.84082-6.61597v-10.6106h8.56934c.27637 0 .5-.22363.5-.5v-4.82324c0-2.35449-1.91553-4.26953-4.26953-4.26953h-1.79102v-1.75818c1.22534-.87115 2.1275-2.17505 2.42676-3.72131 1.08203-.18164 1.90869-1.12402 1.90869-2.25684 0-.68323-.30505-1.29114-.78265-1.70868.13586-.54718.21967-1.11578.21967-1.70636 0-.02863-.00397-.05627-.00427-.08478 11.62011 3.02949 20.22936 13.60096 20.22936 26.16193zm-2.47851 1.00098-.64844.45117v-2.00879c0-.13477-.05469-.26465-.15137-.3584l-2.65967-2.58496c-.09521-.09277-.2207-.1416-.34863-.1416-.05566 0-.11182.00879-.16602.02832l-7.34814 2.58496c-.2002.07031-.33398.25977-.33398.47168v1.91406l-.41992-.2959c-.14307-.51367-.21533-1.05664-.21533-1.61816 0-3.44336 2.80127-6.24414 6.24463-6.24414 3.44287 0 6.24414 2.80078 6.24414 6.24414-.00001.54102-.06641 1.06348-.19727 1.55762zm-12.50269.98327 1.05884.74524c.15234.10742.35205.12109.51807.03418.16553-.08594.26953-.25684.26953-.44336v-2.52246l6.72168-2.36523 2.28613 2.22168v2.75391c0 .18652.10352.35645.26855.44336.07275.03809.15234.05664.23145.05664.1001 0 .2002-.03027.28516-.08984l1.23138-.85565c.23682.22565.39215.5321.39215.89569 0 .70996-.57764 1.28809-1.34033 1.28809-.25244 0-.46533.18848-.49609.43848-.30762 2.49805-2.44482 4.38086-4.97168 4.38086-2.50244 0-4.63525-1.8584-4.96143-4.32227-.01855-.1416-.10303-.27148-.22168-.35156-.08447-.05664-.18652-.08691-.28809-.08691-.04102 0-.08203.00488-.12158.01465-.70996 0-1.2876-.57813-1.2876-1.28809 0-.37795.16816-.70992.42554-.94741zm3.98657 7.42719c.75934.34448 1.58978.55438 2.46826.55438.88129 0 1.71283-.21008 2.47266-.55481v1.60754c0 1.36426-1.11035 2.47461-2.4751 2.47461-1.35986 0-2.46582-1.11035-2.46582-2.47461zm-21.09423-17.98468c-.27637 0-.5.22363-.5.5v1.74023h-3.4873v-4.32324c0-1.80273 1.4668-3.26953 3.26953-3.26953h1.92627c.27582 1.64124 1.69336 2.89844 3.40771 2.89844 1.71869 0 3.1402-1.2572 3.41681-2.89844h1.8493c1.80273 0 3.26953 1.4668 3.26953 3.26953v4.32324h-3.4873v-1.74023c0-.27637-.22363-.5-.5-.5s-.5.22363-.5.5v1.74023h-8.16455v-1.74023c0-.27637-.22364-.5-.5-.5zm-1.82551-14.95544 1.04816.73767c.15186.10742.35156.12109.51807.03418.16553-.08594.26953-.25684.26953-.44336v-2.52246l6.72168-2.36523 2.28613 2.22168v2.75391c0 .18652.10352.35645.26855.44336.07275.03809.15234.05664.23145.05664.1001 0 .2002-.03027.28564-.08984l1.24188-.86371c.23138.23077.38116.54327.38116.90375 0 .70996-.57764 1.28809-1.34033 1.28809-.25244 0-.46533.18848-.49609.43848-.30762 2.49805-2.44482 4.38086-4.97168 4.38086-2.50244 0-4.63525-1.8584-4.96143-4.32227-.01855-.13965-.10645-.26758-.22217-.34766-.08496-.05859-.19141-.08984-.29639-.08984-.03809 0-.07617.00391-.11279.0127-.70996 0-1.2876-.57715-1.2876-1.28711.00002-.3796.17421-.7062.43623-.93984zm6.44416 7.97399c.88129 0 1.71283-.21008 2.47266-.55481v1.60754c0 1.36426-1.11035 2.47461-2.4751 2.47461-1.35986 0-2.46582-1.11035-2.46582-2.47461v-1.60706c.7594.34443 1.58984.55433 2.46826.55433zm.00097-16.7666c3.44287 0 6.24414 2.80078 6.24414 6.24414 0 .54102-.06641 1.06348-.19727 1.55664l-.64844.45117v-2.00781c0-.13477-.05469-.26465-.15137-.3584l-2.65967-2.58496c-.09521-.09277-.2207-.1416-.34863-.1416-.05566 0-.11182.00879-.16602.02832l-7.34814 2.58496c-.2002.07031-.33398.25977-.33398.47168v1.91406l-.41992-.2959c-.14307-.51367-.21533-1.05664-.21533-1.61816.00001-3.44336 2.80127-6.24414 6.24463-6.24414zm-26.604 32.32129c0-12.24853 8.18964-22.59662 19.37134-25.91278.0119.53217.08813 1.04724.21252 1.54498-.52148.41937-.86121 1.05621-.86121 1.77893 0 1.16406.87402 2.12695 2 2.26953.31256 1.50848 1.20673 2.78162 2.41211 3.63715v1.75641h-1.86816c-2.354 0-4.26953 1.91504-4.26953 4.26953v4.82324c0 .27637.22363.5.5.5h8.56982v10.61059l-9.4491 6.35229c-.74579-.63623-1.7002-1.03516-2.755-1.03516h-1.7915v-1.7578c1.22565-.87109 2.12793-2.17523 2.42725-3.72168 1.08154-.18164 1.9082-1.12402 1.9082-2.25684 0-.68176-.30823-1.28333-.78381-1.70129.13702-.54944.22131-1.12054.22131-1.71375 0-3.99414-3.25-7.24414-7.24463-7.24414s-7.24414 3.25-7.24414 7.24414c0 .59039.08704 1.15918.2243 1.70868-.52191.41962-.86151 1.05707-.86151 1.7796 0 1.16406.87402 2.12793 2.00049 2.27051.31311 1.50781 1.20703 2.78058 2.41211 3.63605v1.75653h-1.86816c-.35327 0-.69147.0556-1.02002.1369-1.43238-3.29339-2.24268-6.91717-2.24268-10.73162zm14.64697 1.00098-.64844.45117v-2.00879c0-.13477-.05469-.26465-.15137-.3584l-2.65967-2.58496c-.09521-.09277-.2207-.1416-.34863-.1416-.05566 0-.11182.00879-.16602.02832l-7.34814 2.58496c-.2002.07031-.33398.25977-.33398.47168v1.91406l-.41992-.2959c-.14307-.51367-.21533-1.05664-.21533-1.61816 0-3.44336 2.80127-6.24414 6.24414-6.24414 3.44336 0 6.24463 2.80078 6.24463 6.24414 0 .54102-.06641 1.06348-.19727 1.55762zm-12.48614.99499 1.0423.73352c.15234.10742.35205.12109.51807.03418.16553-.08594.26953-.25684.26953-.44336v-2.52246l6.72168-2.36523 2.28613 2.22168v2.75391c0 .18652.10352.35645.26855.44336.07275.03809.15234.05664.23145.05664.1001 0 .2002-.03027.28516-.08984l1.2345-.85785c.23621.22675.38855.53583.38855.89789 0 .70996-.57764 1.28809-1.33984 1.28809-.25244 0-.46533.18848-.49609.43848-.30762 2.49805-2.44482 4.38086-4.97168 4.38086-2.50244 0-4.63525-1.8584-4.96143-4.32227-.01855-.1416-.10303-.27148-.22168-.35156-.08447-.05664-.18652-.08691-.28809-.08691-.04102 0-.08203.00488-.12158.01465-.71045 0-1.28809-.57813-1.28809-1.28809-.00001-.38143.17846-.70443.44256-.93569zm3.97003 7.41547c.75934.34448 1.58978.55438 2.46826.55438.8811 0 1.71246-.20996 2.47217-.55457v1.6073c0 1.36426-1.10986 2.47461-2.47461 2.47461-1.35986 0-2.46582-1.11035-2.46582-2.47461zm-6.1377 5.45282c0-1.80273 1.4668-3.26953 3.26953-3.26953h1.92627c.27582 1.64124 1.69336 2.89844 3.40771 2.89844 1.71869 0 3.13977-1.2572 3.41632-2.89844h1.84979c1.77129 0 3.26953 1.49323 3.26953 3.26953v4.32324h-3.4873v-1.74023c0-.27637-.22363-.5-.5-.5s-.5.22363-.5.5v1.74023h-8.16455v-1.74023c0-.27637-.22363-.5-.5-.5s-.5.22363-.5.5v1.74023h-3.4873zm27.04346 12.17285c-6.88483 0-13.16779-2.5965-17.94574-6.84961h8.54144c.27637 0 .5-.22363.5-.5v-4.82324c0-.93414-.31018-1.79193-.82104-2.49561l9.25562-6.22217 9.7832 6.57715c.04791.03241.1004.04987.1532.06378-.34747.61743-.56238 1.31921-.56238 2.07684v4.82324c0 .27637.22363.5.5.5h8.54144c-4.77795 4.25312-11.06091 6.84962-17.94574 6.84962zm27.04346-7.84961h-3.4873v-1.74023c0-.27637-.22363-.5-.5-.5s-.5.22363-.5.5v1.74023h-8.16455v-1.74023c0-.27637-.22363-.5-.5-.5s-.5.22363-.5.5v1.74023h-3.4873v-4.32324c0-1.80273 1.4668-3.26953 3.26953-3.26953h1.92627c.27582 1.64124 1.69336 2.89844 3.40771 2.89844 1.71869 0 3.1402-1.2572 3.41681-2.89844h1.8493c1.80273 0 3.26953 1.4668 3.26953 3.26953z" fill="#000000" data-original="#2a44e2" style="" class=""/></g></g></g></svg>
