<svg data-v-423bf9ae="" xmlns="http://www.w3.org/2000/svg" viewBox="0 0 998.464328875956 193" class="fontAboveSlogan"><!----><!----><!----><g data-v-423bf9ae="" id="2ac5b224-d3e5-4b3b-b5c5-6f2f43f3938b" fill="black" transform="matrix(12.539185523986816,0,0,12.539185523986816,241.6316375732422,-52.00300979614258)"><path d="M2.73 12.36L2.73 4.36L1.50 4.36L1.50 13.52L7.78 13.52L7.78 12.36ZM14.21 4.16C11.44 4.16 9.38 6.32 9.38 8.94C9.38 11.57 11.44 13.73 14.21 13.73C16.97 13.73 19.03 11.57 19.03 8.94C19.03 6.32 16.97 4.16 14.21 4.16ZM14.21 5.36C16.26 5.36 17.77 6.89 17.77 8.94C17.77 10.99 16.26 12.52 14.21 12.52C12.15 12.52 10.64 10.99 10.64 8.94C10.64 6.89 12.15 5.36 14.21 5.36ZM28.75 8.52L25.13 8.52L25.13 9.61L27.43 9.61L27.41 11.74C27.10 12.00 26.61 12.52 25.22 12.52C23.17 12.52 21.66 10.99 21.66 8.94C21.66 6.89 23.17 5.36 25.22 5.36C26.62 5.36 27.36 6.07 27.97 6.49L27.97 5.14C27.33 4.57 26.55 4.16 25.22 4.16C22.46 4.16 20.40 6.32 20.40 8.94C20.40 11.57 22.46 13.73 25.22 13.73C26.82 13.73 28.10 12.99 28.75 12.28ZM34.81 4.16C32.05 4.16 29.98 6.32 29.98 8.94C29.98 11.57 32.05 13.73 34.81 13.73C37.57 13.73 39.63 11.57 39.63 8.94C39.63 6.32 37.57 4.16 34.81 4.16ZM34.81 5.36C36.86 5.36 38.38 6.89 38.38 8.94C38.38 10.99 36.86 12.52 34.81 12.52C32.76 12.52 31.24 10.99 31.24 8.94C31.24 6.89 32.76 5.36 34.81 5.36Z"></path></g><!----><!----><g data-v-423bf9ae="" id="36a378c0-162d-4b0d-9857-38e9a4dc18aa" fill="black" transform="matrix(5.357142925262451,0,0,5.357142925262451,-4.6607441902160645,118)"><path d="M8.76 10.68L8.76 10.68Q8.37 11.86 7.40 12.51L7.40 12.51L7.40 12.51Q6.43 13.16 5.07 13.16L5.07 13.16L5.07 13.16Q3.81 13.16 2.86 12.58L2.86 12.58L2.86 12.58Q1.90 12.00 1.39 10.92L1.39 10.92L1.39 10.92Q0.87 9.84 0.87 8.40L0.87 8.40L0.87 8.40Q0.87 6.96 1.39 5.88L1.39 5.88L1.39 5.88Q1.90 4.80 2.86 4.22L2.86 4.22L2.86 4.22Q3.81 3.64 5.05 3.64L5.05 3.64L5.05 3.64Q7.83 3.64 8.64 5.92L8.64 5.92L7.95 6.24L7.95 6.24Q7.63 5.26 6.92 4.77L6.92 4.77L6.92 4.77Q6.22 4.28 5.10 4.28L5.10 4.28L5.10 4.28Q4.06 4.28 3.27 4.78L3.27 4.78L3.27 4.78Q2.48 5.28 2.04 6.21L2.04 6.21L2.04 6.21Q1.61 7.14 1.61 8.40L1.61 8.40L1.61 8.40Q1.61 9.66 2.04 10.59L2.04 10.59L2.04 10.59Q2.46 11.52 3.24 12.02L3.24 12.02L3.24 12.02Q4.02 12.52 5.07 12.52L5.07 12.52L5.07 12.52Q6.19 12.52 6.97 11.97L6.97 11.97L6.97 11.97Q7.76 11.42 8.06 10.42L8.06 10.42L8.76 10.68ZM18.52 12.38L24.36 12.38L24.36 13.02L17.82 13.02L17.82 3.78L24.14 3.78L24.14 4.42L18.52 4.42L18.52 7.99L22.96 7.99L22.96 8.65L18.52 8.65L18.52 12.38ZM36.25 3.64L36.25 3.64Q38.85 3.64 39.73 5.68L39.73 5.68L39.13 6.17L39.13 6.17Q38.78 5.18 38.09 4.73L38.09 4.73L38.09 4.73Q37.39 4.28 36.26 4.28L36.26 4.28L36.26 4.28Q35.45 4.28 34.85 4.54L34.85 4.54L34.85 4.54Q34.24 4.79 33.93 5.22L33.93 5.22L33.93 5.22Q33.61 5.66 33.61 6.20L33.61 6.20L33.61 6.20Q33.61 6.73 33.88 7.08L33.88 7.08L33.88 7.08Q34.15 7.43 34.78 7.68L34.78 7.68L34.78 7.68Q35.42 7.92 36.54 8.12L36.54 8.12L36.54 8.12Q38.35 8.43 39.10 9.02L39.10 9.02L39.10 9.02Q39.86 9.60 39.86 10.64L39.86 10.64L39.86 10.64Q39.86 11.38 39.42 11.96L39.42 11.96L39.42 11.96Q38.99 12.53 38.20 12.84L38.20 12.84L38.20 12.84Q37.41 13.16 36.39 13.16L36.39 13.16L36.39 13.16Q34.93 13.16 33.93 12.58L33.93 12.58L33.93 12.58Q32.93 12.00 32.56 10.95L32.56 10.95L33.18 10.47L33.18 10.47Q33.46 11.47 34.31 11.99L34.31 11.99L34.31 11.99Q35.15 12.52 36.40 12.52L36.40 12.52L36.40 12.52Q37.60 12.52 38.37 12.03L38.37 12.03L38.37 12.03Q39.13 11.54 39.13 10.68L39.13 10.68L39.13 10.68Q39.13 9.94 38.51 9.51L38.51 9.51L38.51 9.51Q37.88 9.07 36.34 8.81L36.34 8.81L36.34 8.81Q35.04 8.58 34.29 8.26L34.29 8.26L34.29 8.26Q33.53 7.94 33.20 7.46L33.20 7.46L33.20 7.46Q32.87 6.99 32.87 6.27L32.87 6.27L32.87 6.27Q32.87 5.56 33.28 4.96L33.28 4.96L33.28 4.96Q33.70 4.35 34.46 4.00L34.46 4.00L34.46 4.00Q35.22 3.64 36.25 3.64L36.25 3.64ZM52.70 2.80L48.71 14L48.03 14L52.02 2.80L52.70 2.80ZM68.67 10.68L68.67 10.68Q68.28 11.86 67.30 12.51L67.30 12.51L67.30 12.51Q66.33 13.16 64.97 13.16L64.97 13.16L64.97 13.16Q63.71 13.16 62.76 12.58L62.76 12.58L62.76 12.58Q61.81 12.00 61.29 10.92L61.29 10.92L61.29 10.92Q60.77 9.84 60.77 8.40L60.77 8.40L60.77 8.40Q60.77 6.96 61.29 5.88L61.29 5.88L61.29 5.88Q61.81 4.80 62.76 4.22L62.76 4.22L62.76 4.22Q63.71 3.64 64.96 3.64L64.96 3.64L64.96 3.64Q67.73 3.64 68.54 5.92L68.54 5.92L67.86 6.24L67.86 6.24Q67.54 5.26 66.83 4.77L66.83 4.77L66.83 4.77Q66.12 4.28 65.00 4.28L65.00 4.28L65.00 4.28Q63.97 4.28 63.17 4.78L63.17 4.78L63.17 4.78Q62.38 5.28 61.95 6.21L61.95 6.21L61.95 6.21Q61.52 7.14 61.52 8.40L61.52 8.40L61.52 8.40Q61.52 9.66 61.94 10.59L61.94 10.59L61.94 10.59Q62.37 11.52 63.15 12.02L63.15 12.02L63.15 12.02Q63.92 12.52 64.97 12.52L64.97 12.52L64.97 12.52Q66.09 12.52 66.88 11.97L66.88 11.97L66.88 11.97Q67.66 11.42 67.97 10.42L67.97 10.42L68.67 10.68ZM78.43 12.38L84.27 12.38L84.27 13.02L77.73 13.02L77.73 3.78L84.04 3.78L84.04 4.42L78.43 4.42L78.43 7.99L82.87 7.99L82.87 8.65L78.43 8.65L78.43 12.38ZM96.15 3.64L96.15 3.64Q98.76 3.64 99.64 5.68L99.64 5.68L99.04 6.17L99.04 6.17Q98.69 5.18 97.99 4.73L97.99 4.73L97.99 4.73Q97.30 4.28 96.17 4.28L96.17 4.28L96.17 4.28Q95.35 4.28 94.75 4.54L94.75 4.54L94.75 4.54Q94.15 4.79 93.83 5.22L93.83 5.22L93.83 5.22Q93.52 5.66 93.52 6.20L93.52 6.20L93.52 6.20Q93.52 6.73 93.79 7.08L93.79 7.08L93.79 7.08Q94.05 7.43 94.69 7.68L94.69 7.68L94.69 7.68Q95.33 7.92 96.45 8.12L96.45 8.12L96.45 8.12Q98.25 8.43 99.01 9.02L99.01 9.02L99.01 9.02Q99.76 9.60 99.76 10.64L99.76 10.64L99.76 10.64Q99.76 11.38 99.33 11.96L99.33 11.96L99.33 11.96Q98.90 12.53 98.10 12.84L98.10 12.84L98.10 12.84Q97.31 13.16 96.29 13.16L96.29 13.16L96.29 13.16Q94.84 13.16 93.83 12.58L93.83 12.58L93.83 12.58Q92.83 12.00 92.47 10.95L92.47 10.95L93.09 10.47L93.09 10.47Q93.37 11.47 94.21 11.99L94.21 11.99L94.21 11.99Q95.06 12.52 96.31 12.52L96.31 12.52L96.31 12.52Q97.51 12.52 98.27 12.03L98.27 12.03L98.27 12.03Q99.04 11.54 99.04 10.68L99.04 10.68L99.04 10.68Q99.04 9.94 98.41 9.51L98.41 9.51L98.41 9.51Q97.79 9.07 96.25 8.81L96.25 8.81L96.25 8.81Q94.95 8.58 94.19 8.26L94.19 8.26L94.19 8.26Q93.44 7.94 93.11 7.46L93.11 7.46L93.11 7.46Q92.78 6.99 92.78 6.27L92.78 6.27L92.78 6.27Q92.78 5.56 93.19 4.96L93.19 4.96L93.19 4.96Q93.60 4.35 94.37 4.00L94.37 4.00L94.37 4.00Q95.13 3.64 96.15 3.64L96.15 3.64ZM109.66 12.38L115.50 12.38L115.50 13.02L108.96 13.02L108.96 3.78L115.28 3.78L115.28 4.42L109.66 4.42L109.66 7.99L114.10 7.99L114.10 8.65L109.66 8.65L109.66 12.38ZM135.37 13.02L135.37 12.45L135.37 12.45Q137.34 10.91 138.39 9.95L138.39 9.95L138.39 9.95Q139.44 9.00 139.98 8.16L139.98 8.16L139.98 8.16Q140.52 7.32 140.52 6.45L140.52 6.45L140.52 6.45Q140.52 5.46 139.91 4.87L139.91 4.87L139.91 4.87Q139.30 4.28 138.25 4.28L138.25 4.28L138.25 4.28Q137.17 4.28 136.51 4.96L136.51 4.96L136.51 4.96Q135.86 5.64 135.77 6.80L135.77 6.80L135.16 6.45L135.16 6.45Q135.28 5.17 136.10 4.40L136.10 4.40L136.10 4.40Q136.92 3.64 138.26 3.64L138.26 3.64L138.26 3.64Q139.64 3.64 140.44 4.40L140.44 4.40L140.44 4.40Q141.25 5.17 141.25 6.45L141.25 6.45L141.25 6.45Q141.25 7.38 140.73 8.25L140.73 8.25L140.73 8.25Q140.21 9.13 139.18 10.09L139.18 10.09L139.18 10.09Q138.15 11.06 136.39 12.38L136.39 12.38L136.39 12.39L137.31 12.38L141.54 12.38L141.54 13.02L135.37 13.02ZM153.55 13.16L153.55 13.16Q151.91 13.16 151.05 11.93L151.05 11.93L151.05 11.93Q150.18 10.71 150.18 8.40L150.18 8.40L150.18 8.40Q150.18 6.09 151.05 4.87L151.05 4.87L151.05 4.87Q151.91 3.64 153.55 3.64L153.55 3.64L153.55 3.64Q155.18 3.64 156.04 4.87L156.04 4.87L156.04 4.87Q156.91 6.09 156.91 8.40L156.91 8.40L156.91 8.40Q156.91 10.71 156.04 11.93L156.04 11.93L156.04 11.93Q155.18 13.16 153.55 13.16L153.55 13.16ZM153.55 12.53L153.55 12.53Q154.84 12.53 155.52 11.47L155.52 11.47L155.52 11.47Q156.20 10.40 156.20 8.40L156.20 8.40L156.20 8.40Q156.20 6.40 155.52 5.33L155.52 5.33L155.52 5.33Q154.84 4.27 153.55 4.27L153.55 4.27L153.55 4.27Q152.26 4.27 151.58 5.33L151.58 5.33L151.58 5.33Q150.89 6.40 150.89 8.40L150.89 8.40L150.89 8.40Q150.89 10.40 151.58 11.47L151.58 11.47L151.58 11.47Q152.26 12.53 153.55 12.53L153.55 12.53ZM165.70 13.02L165.70 12.45L165.70 12.45Q167.68 10.91 168.73 9.95L168.73 9.95L168.73 9.95Q169.78 9.00 170.32 8.16L170.32 8.16L170.32 8.16Q170.86 7.32 170.86 6.45L170.86 6.45L170.86 6.45Q170.86 5.46 170.25 4.87L170.25 4.87L170.25 4.87Q169.64 4.28 168.59 4.28L168.59 4.28L168.59 4.28Q167.51 4.28 166.85 4.96L166.85 4.96L166.85 4.96Q166.19 5.64 166.11 6.80L166.11 6.80L165.49 6.45L165.49 6.45Q165.62 5.17 166.44 4.40L166.44 4.40L166.44 4.40Q167.26 3.64 168.60 3.64L168.60 3.64L168.60 3.64Q169.97 3.64 170.78 4.40L170.78 4.40L170.78 4.40Q171.58 5.17 171.58 6.45L171.58 6.45L171.58 6.45Q171.58 7.38 171.07 8.25L171.07 8.25L171.07 8.25Q170.55 9.13 169.52 10.09L169.52 10.09L169.52 10.09Q168.49 11.06 166.73 12.38L166.73 12.38L166.73 12.39L167.65 12.38L171.88 12.38L171.88 13.02L165.70 13.02ZM183.89 13.16L183.89 13.16Q182.25 13.16 181.38 11.93L181.38 11.93L181.38 11.93Q180.52 10.71 180.52 8.40L180.52 8.40L180.52 8.40Q180.52 6.09 181.38 4.87L181.38 4.87L181.38 4.87Q182.25 3.64 183.89 3.64L183.89 3.64L183.89 3.64Q185.51 3.64 186.38 4.87L186.38 4.87L186.38 4.87Q187.25 6.09 187.25 8.40L187.25 8.40L187.25 8.40Q187.25 10.71 186.38 11.93L186.38 11.93L186.38 11.93Q185.51 13.16 183.89 13.16L183.89 13.16ZM183.89 12.53L183.89 12.53Q185.18 12.53 185.86 11.47L185.86 11.47L185.86 11.47Q186.54 10.40 186.54 8.40L186.54 8.40L186.54 8.40Q186.54 6.40 185.86 5.33L185.86 5.33L185.86 5.33Q185.18 4.27 183.89 4.27L183.89 4.27L183.89 4.27Q182.60 4.27 181.92 5.33L181.92 5.33L181.92 5.33Q181.23 6.40 181.23 8.40L181.23 8.40L181.23 8.40Q181.23 10.40 181.92 11.47L181.92 11.47L181.92 11.47Q182.60 12.53 183.89 12.53L183.89 12.53Z"></path></g></svg>
