<svg xmlns="http://www.w3.org/2000/svg" xmlns:xlink="http://www.w3.org/1999/xlink" id="Layer_1" x="0" y="0" version="1.1" viewBox="0 0 450.9 60" xml:space="preserve" style="enable-background:new 0 0 450.9 60"><style type="text/css">.st0{fill:#ffeb4f}.st1{fill:#0000fa}.st2{fill:#f2f2fe}.st3{fill:#d8d8fe}.st4{fill:#b2b2fc}.st5{fill:#e5e5fe}</style><g><g><path d="M254.6,42.9c-0.3-1-0.8-2-1.4-3c-3.2-5.1-7.1-9.5-11.3-13.7c-0.8-0.8-1.7-1.2-2.8-1.1c-0.9,0-1.8-0.1-2.7-0.1 c-5.2-0.3-10.3-0.5-15.5-0.7c-4.4-0.2-8.8-0.4-13.2-0.6c0.1-0.1,0.2-0.2,0.3-0.3l0,0c1.4-0.1,2.9-0.3,4.3-0.4 c3.9-0.3,7.9-0.6,11.8-0.9c4.4-0.4,8.8-0.8,13.3-1.2c4.3-0.4,8.6-0.7,12.9-1.1c0.5,0,0.7-0.2,0.6-0.8c-0.3-1-0.8-2-1.3-2.9 c-3.1-5-6.9-9.5-11.2-13.5c-0.8-0.8-1.7-1.6-3-1.6c-7.1,0-14.2,0-21.3-0.1c-10-0.2-20.1,0-30.1-0.2c-11.1-0.2-22.2,0-33.3-0.2 c-9.6-0.2-19.2,0-28.8-0.2c-10.2-0.2-20.5,0-30.7-0.2c-9.5-0.2-19.1,0-28.6-0.2c-10.9-0.2-21.7,0-32.6-0.2C20.6,0,11.4,0,2.1,0 c-2.5,0-2.5,0-1.4,2.3C2.5,5.8,5,8.8,7.5,11.8c0.7,0.8,1.4,1.6,2.3,2.6c-1.3,0-2.5,0-3.6,0c-0.6,0-0.8,0.2-0.6,0.8 c0.3,0.9,0.6,1.7,1.1,2.5c3.2,5.3,7.3,10,11.7,14.3c0.6,0.6,1.4,1,2.3,1.1c4,0.2,8.1,0.3,12.1,0.5c3.2,0.1,6.3,0.3,9.5,0.4 c0.3,0,0.6,0,0.9,0.3c-4,0.3-7.9,0.6-11.8,0.9c-4.1,0.3-8.2,0.7-12.3,1c-5.4,0.4-10.9,1-16.3,1.6c-0.7,0.1-0.7,0.4-0.6,0.9 c0.3,0.9,0.8,1.9,1.3,2.7c3.1,5.1,7,9.6,11.4,13.7c0.6,0.6,1.3,1.2,2.2,1.2c0.9,0,1.9,0.1,2.8,0.1c6.3,0,12.7,0.2,19,0.3 c6.8,0.2,13.6,0.3,20.4,0.4c6.7,0.1,13.4,0.2,20,0.3c3.6,0.1,7.2,0,10.7,0.1c6.6,0.2,13.2,0.3,19.8,0.4c6.4,0.1,12.9,0.2,19.3,0.3 c6.8,0.2,13.6,0.3,20.5,0.4c6.6,0.1,13.2,0.3,19.8,0.3c7,0.1,14,0.3,21,0.2c0.2,0,0.3,0,0.5,0c0.4,0,0.5-0.2,0.4-0.6 c-0.1-0.3-0.2-0.6-0.4-1c-1-2.4-2.5-4.5-4.1-6.6c-1.1-1.4-2.3-2.8-3.5-4.4c1.5,0,2.8-0.1,4.1-0.2c4-0.2,8-0.4,12-0.5 c4-0.2,8.1-0.3,12.1-0.5c3.8-0.2,7.5-0.3,11.3-0.5c5.4-0.2,10.8-0.5,16.2-0.7c3.5-0.1,7-0.2,10.6-0.4c1.4-0.1,2.8-0.1,4.2-0.2 C254.6,43.8,254.8,43.6,254.6,42.9z M206.1,23.7C206.1,23.7,206.1,23.7,206.1,23.7C206,23.7,206,23.7,206.1,23.7 C206.1,23.7,206.1,23.7,206.1,23.7z M206,23.7C206,23.7,206.1,23.7,206,23.7C206.1,23.7,206.1,23.7,206,23.7 C206.1,23.8,206,23.8,206,23.7z" class="st0"/><circle cx="53.2" cy="10.4" r="2.2"/><circle cx="60" cy="10.4" r="2.2"/><circle cx="66.7" cy="10.4" r="2.2"/><circle cx="59.8" cy="16.7" r="2.2"/><circle cx="66.5" cy="16.7" r="2.2"/><circle cx="73.3" cy="16.7" r="2.2"/><circle cx="66.1" cy="23" r="2.2"/><circle cx="72.8" cy="23" r="2.2"/><circle cx="79.6" cy="23" r="2.2"/><circle cx="72.4" cy="29.3" r="2.2"/><circle cx="79.2" cy="29.3" r="2.2"/><circle cx="85.9" cy="29.3" r="2.2"/><circle cx="66.1" cy="35.6" r="2.2"/><circle cx="72.8" cy="35.6" r="2.2"/><circle cx="79.6" cy="35.6" r="2.2"/><circle cx="59.8" cy="42" r="2.2"/><circle cx="66.5" cy="42" r="2.2"/><circle cx="73.3" cy="42" r="2.2"/><circle cx="53.2" cy="48.3" r="2.2"/><circle cx="60" cy="48.3" r="2.2"/><circle cx="66.7" cy="48.3" r="2.2"/><polygon points="94.4 8.1 78.1 8.1 99.6 29.5 78.1 50.9 94.4 50.9 115.8 29.5"/><g><path d="M135.1,8.6h3.3l-3.6,15.7h-5.9l-3.6-15.7h3.3l2.7,12.9h1L135.1,8.6z"/><path d="M151.4,22.6c-1,1.3-2.7,1.9-5,1.9s-4.1-0.6-5-1.9c-1-1.3-1.5-3.3-1.5-6.1s0.5-4.8,1.5-6.2s2.7-2,5-2s4.1,0.7,5,2 c1,1.3,1.5,3.4,1.5,6.2S152.4,21.4,151.4,22.6z M143.8,20.6c0.5,0.8,1.3,1.2,2.5,1.2s2.1-0.4,2.5-1.2c0.5-0.8,0.7-2.2,0.7-4.1 s-0.2-3.3-0.7-4.1c-0.5-0.9-1.3-1.3-2.5-1.3c-1.2,0-2.1,0.4-2.5,1.3c-0.5,0.9-0.7,2.2-0.7,4.1C143.2,18.5,143.4,19.8,143.8,20.6z"/><path d="M154.4,11.5V8.6h11.5v2.8h-4.1v12.9h-3.2V11.5H154.4z"/><path d="M137.4,50.3c-1,1.3-2.7,1.9-5,1.9s-4.1-0.6-5-1.9c-1-1.3-1.5-3.3-1.5-6.1c0-2.8,0.5-4.8,1.5-6.2c1-1.3,2.7-2,5-2 s4.1,0.7,5,2c1,1.3,1.5,3.4,1.5,6.2C138.9,47,138.4,49,137.4,50.3z M129.9,48.3c0.5,0.8,1.3,1.2,2.5,1.2s2.1-0.4,2.5-1.2 s0.7-2.2,0.7-4.1s-0.2-3.3-0.7-4.1c-0.5-0.9-1.3-1.3-2.5-1.3c-1.2,0-2.1,0.4-2.5,1.3s-0.7,2.2-0.7,4.1 C129.2,46.1,129.4,47.5,129.9,48.3z"/><path d="M141.9,52V36.3h5.4l3.8,12.9h0.2V36.3h3.2V52h-5.2l-3.9-12.9h-0.2V52H141.9z"/><path d="M164.7,46.4v-2.8h4.6v8.2c-2.2,0.3-4,0.5-5.3,0.5c-2.5,0-4.1-0.6-5-2c-0.9-1.3-1.4-3.4-1.4-6.2c0-2.8,0.5-4.9,1.4-6.2 c0.9-1.3,2.6-1.9,4.9-1.9c1.4,0,3,0.2,4.6,0.5l0.8,0.2l-0.1,2.5c-1.9-0.2-3.4-0.3-4.5-0.3c-1.2,0-2,0.1-2.5,0.4 c-0.5,0.3-0.8,0.8-1,1.5c-0.2,0.7-0.3,2-0.3,3.8c0,1.8,0.2,3.1,0.7,3.8c0.4,0.7,1.4,1.1,2.8,1.1l1.9-0.1v-3L164.7,46.4 L164.7,46.4z"/></g></g><g><polygon points="314.2 13.2 307.4 14.3 295 36.2 307.4 58 314.2 59 301 36.2" class="st1"/><polygon points="331.5 13.2 338.2 14.3 350.6 36.2 338.2 58 331.5 59 344.6 36.2" class="st1"/><path d="M314.2,13.2l8.6-1v23.9H301L314.2,13.2z" class="st2"/><path d="M314.2,59l8.6,1V36.2H301L314.2,59z" class="st3"/><path d="M331.5,59l-8.7,1V36.2h21.8L331.5,59z" class="st4"/><path d="M331.5,13.2l-8.7-1v23.9h21.8L331.5,13.2z" class="st5"/><path d="M373,32.4c-1.5,0.4-3,0.5-4.5,0.5c-1.1,0.1-2.2-0.1-3.2-0.5c-0.8-0.3-1.5-0.9-1.9-1.6c-0.5-0.8-0.8-1.7-1-2.6 c-0.2-1.2-0.3-2.5-0.2-3.7c0-3.1,0.4-5.3,1.3-6.5s2.5-1.9,4.8-1.9c1.6,0,3.2,0.3,4.7,0.7l-0.1,2.6c-1.3-0.2-2.6-0.3-3.9-0.4 c-1.1,0-1.8,0.2-2.2,0.4c-0.4,0.3-0.8,0.8-1,1.6c-0.2,0.8-0.4,2.1-0.4,4s0.2,3.2,0.7,3.9c0.4,0.8,1.3,1.1,2.6,1.1 c1.4,0,2.8-0.1,4.2-0.3L373,32.4z M375.8,22.1c0.9-1.1,2.3-1.6,4.2-1.6c1.9,0,3.3,0.5,4.2,1.6s1.3,2.6,1.3,4.6 c0,4.2-1.8,6.2-5.5,6.2c-3.7,0-5.4-2.1-5.4-6.2C374.6,24.7,375,23.2,375.8,22.1z M378.3,29.4c0.3,0.6,0.9,0.9,1.7,0.9 c0.8,0,1.5-0.3,1.8-0.9c0.4-0.9,0.5-1.8,0.5-2.7c0.1-0.9-0.1-1.8-0.5-2.6c-0.3-0.5-0.9-0.9-1.8-0.9c-0.7-0.1-1.3,0.3-1.7,0.9 c-0.4,0.5-0.5,1.5-0.5,2.6S378,28.8,378.3,29.4L378.3,29.4z M397.9,16v16.6h-3.2v-0.5c-0.9,0.5-1.9,0.8-2.9,0.8 c-1.7,0-2.9-0.5-3.6-1.5c-0.7-1-1-2.6-1-4.7s0.4-3.7,1.2-4.7c0.8-1,2-1.5,3.7-1.5c0.7,0,1.4,0.1,2.1,0.2l0.5,0.1V16H397.9z M394.4,29.8l0.4-0.1v-6.2c-0.8-0.2-1.6-0.2-2.3-0.2c-1.3,0-1.9,1.1-1.9,3.4c0,1.2,0.1,2.1,0.4,2.6c0.3,0.5,0.8,0.8,1.4,0.8 C393.1,30.1,393.8,30,394.4,29.8z M404.1,29.6c0.4,0.4,1,0.5,1.6,0.5c1.5,0,2.8-0.1,3.9-0.2l0.7-0.1v2.3c-1.6,0.4-3.2,0.7-4.9,0.7 c-1.8,0-3.1-0.5-3.9-1.5c-0.8-0.9-1.2-2.5-1.2-4.6c0-4.3,1.7-6.4,5.2-6.4s5.2,1.8,5.2,5.4l-0.2,2.2h-7 C403.5,28.7,403.7,29.3,404.1,29.6z M407.6,25.6c0-0.9-0.2-1.6-0.5-2c-0.3-0.4-0.8-0.5-1.6-0.5c-0.8,0-1.3,0.2-1.6,0.6 c-0.3,0.4-0.5,1.1-0.5,1.9H407.6z M422,23.5v9.2h-3.2v-9.2h-1.2v-2.7h1.2v-0.5c0-1.7,0.3-2.9,0.8-3.6c0.5-0.7,1.4-1,2.7-1 c0.7,0,1.5,0.1,2.2,0.2L425,16v2.6l-1.8-0.1c-0.4,0-0.7,0.1-1,0.4c-0.2,0.4-0.3,0.9-0.2,1.3v0.5h2.9v2.7L422,23.5z M427.3,22.1 c0.8-1.1,2.2-1.6,4.2-1.6s3.4,0.5,4.2,1.6c0.8,1.1,1.3,2.6,1.3,4.6c0,4.2-1.8,6.2-5.5,6.2c-3.7,0-5.4-2.1-5.4-6.2 C426,24.7,426.4,23.2,427.3,22.1L427.3,22.1z M429.7,29.4c0.3,0.6,0.9,0.9,1.7,0.9c0.8,0,1.5-0.3,1.8-0.9c0.3-0.6,0.5-1.5,0.5-2.7 s-0.2-2.1-0.5-2.6c-0.4-0.5-0.9-0.8-1.8-0.8c-0.9,0-1.4,0.3-1.7,0.8c-0.3,0.5-0.5,1.5-0.5,2.6S429.4,28.8,429.7,29.4L429.7,29.4z M439.2,32.7V20.8h3.2v1.3c1.2-0.8,2.5-1.3,3.8-1.6v3.2c-1.1,0.2-2.2,0.5-3.3,0.9l-0.5,0.2v7.9H439.2z M366.1,51v5.4h-3.3V40.3 h6.3c3.8,0,5.7,1.8,5.7,5.3c0,2.1-0.8,3.7-2.4,4.6l2.3,6.2h-3.6l-1.9-5.4L366.1,51L366.1,51z M370.9,47.5c0.4-0.5,0.6-1.2,0.5-1.9 c0-0.6-0.2-1.3-0.6-1.8c-0.4-0.5-1.1-0.8-1.8-0.7h-3v5.1h3C369.7,48.2,370.4,48,370.9,47.5z M377.7,45.9c0.9-1.1,2.3-1.6,4.2-1.6 s3.4,0.5,4.2,1.6c0.8,1.1,1.2,2.6,1.2,4.6c0,4.2-1.8,6.2-5.4,6.2c-3.7,0-5.4-2.1-5.4-6.2C376.4,48.5,376.9,46.9,377.7,45.9z M380.1,53.1c0.4,0.6,1.1,0.9,1.8,0.9c0.9,0,1.5-0.3,1.8-0.9c0.4-0.9,0.5-1.8,0.5-2.7c0.1-0.9-0.1-1.8-0.5-2.7 c-0.3-0.5-0.9-0.8-1.8-0.8c-0.7-0.1-1.3,0.3-1.8,0.8c-0.3,0.6-0.5,1.5-0.5,2.7C379.7,51.7,379.8,52.6,380.1,53.1L380.1,53.1z M392.9,56.4h-3.2V44.5h3.2v0.7c0.8-0.5,1.8-0.9,2.8-0.9c1.3,0,2.3,0.4,3,1.1c1.2-0.7,2.6-1,4-1.1c1.6,0,2.6,0.4,3.3,1.4 c0.6,0.9,0.9,2.3,0.9,4.4v6.4h-3.2v-6.4c0.1-0.8-0.1-1.5-0.3-2.3c-0.3-0.5-0.8-0.8-1.3-0.7c-0.6,0-1.3,0.1-1.9,0.3l-0.4,0.1 c0.1,1.2,0.1,2.1,0.1,2.7v6.1h-3.2v-6.1c0-0.8-0.1-1.7-0.3-2.5c-0.2-0.5-0.7-0.7-1.4-0.7c-0.6,0-1.2,0.1-1.8,0.3l-0.3,0.1V56.4z M418.7,48.2v5c0,0.3,0.1,0.5,0.2,0.8c0.1,0.2,0.3,0.3,0.6,0.3l-0.1,2.4c-0.6,0-1.3,0-1.9-0.2c-0.5-0.1-1-0.4-1.5-0.7 c-1.1,0.5-2.3,0.8-3.5,0.8c-2.5,0-3.7-1.3-3.7-3.9c0-1.3,0.4-2.2,1.1-2.7c0.7-0.5,1.7-0.9,3.1-0.9l2.5-0.2v-0.8 c0-0.4-0.1-0.7-0.3-1c-0.3-0.2-0.7-0.3-1.1-0.3l-4.4,0.2l-0.1-2.2c1.6-0.4,3.2-0.7,4.8-0.7c1.6,0,2.6,0.4,3.3,1 C418.4,45.8,418.7,46.8,418.7,48.2L418.7,48.2z M413.4,51.4c-0.9,0.1-1.3,0.5-1.3,1.4s0.4,1.3,1.2,1.3c0.6,0,1.3-0.1,1.9-0.3 l0.4-0.1v-2.5L413.4,51.4z M424.9,56.4h-3.2V44.5h3.2v0.7c0.9-0.6,1.9-0.9,3-0.9c1.6,0,2.7,0.5,3.3,1.4c0.6,0.9,0.9,2.4,0.9,4.3 v6.5h-3.2v-6.4c0.1-0.8-0.1-1.5-0.4-2.3c-0.2-0.5-0.8-0.7-1.5-0.7c-0.6,0-1.3,0.1-1.9,0.3l-0.3,0.1L424.9,56.4z M434.9,43v-3.2 h3.2V43H434.9z M434.9,56.4V44.5h3.2v11.9H434.9z M450.1,48.2v5c0,0.3,0.1,0.5,0.2,0.8c0.1,0.2,0.3,0.3,0.6,0.3l-0.1,2.4 c-0.6,0-1.3,0-1.9-0.2c-0.5-0.1-1-0.4-1.5-0.7c-1.1,0.5-2.3,0.8-3.5,0.8c-2.5,0-3.7-1.3-3.7-3.9c0-1.3,0.4-2.2,1-2.7 c0.7-0.5,1.8-0.9,3.2-0.9L447,49v-0.8c0-0.4-0.1-0.7-0.3-1c-0.3-0.2-0.7-0.3-1.1-0.3l-4.4,0.2l-0.1-2.2c1.6-0.4,3.2-0.7,4.8-0.7 c1.6,0,2.6,0.4,3.3,1C449.8,45.8,450.1,46.8,450.1,48.2L450.1,48.2z M444.8,51.4c-0.9,0.1-1.3,0.5-1.3,1.4s0.4,1.3,1.1,1.3 c0.7,0,1.3-0.1,2-0.3l0.4-0.1v-2.5L444.8,51.4z"/></g><g><path d="M273.7,31.5c1.4,0,2.4,0.4,3,1.2c0.6,0.8,0.8,2.2,0.8,4.2s-0.4,3.4-1.1,4.2c-0.7,0.8-2,1.2-3.9,1.2 c-0.6,0-1.6-0.1-2.9-0.2l-0.6-0.1v-15h1.5v5.1C271.7,31.7,272.7,31.5,273.7,31.5z M272.5,40.9c1.4,0,2.3-0.3,2.7-0.9 c0.4-0.6,0.7-1.7,0.7-3.1c0-1.5-0.2-2.5-0.5-3.1c-0.3-0.6-1-0.9-1.9-0.9c-0.8,0-1.6,0.2-2.5,0.5l-0.4,0.1v7.4 C271.5,40.9,272.2,40.9,272.5,40.9z"/><path d="M278.9,31.7h1.6l2.6,9.1h0.7l2.6-9.1h1.6l-4.4,15.1h-1.6l1.4-4.6h-1.5L278.9,31.7z"/></g></g></svg>