<?xml version="1.0" encoding="UTF-8"?><svg id="a" xmlns="http://www.w3.org/2000/svg" viewBox="0 0 283.46 283.46"><defs><style>.b{fill:#231f20;}.b,.c{stroke-width:0px;}.c{fill:#fff;}</style></defs><ellipse class="c" cx="144.21" cy="143.31" rx="71.09" ry="68.99"/><path class="b" d="M215.92,141.75c-.12,29.47-18.06,58.05-45.14,70.13-50.31,22.5-107.08-15.4-107.58-70.13-.84-31.27,18.72-62.14,47.9-73.94,24.02-10.19,53.27-6.87,73.89,9.19,19.9,15.03,31.38,40.01,30.93,64.75h0ZM214.68,141.75c-.09-28.67-20-54.22-46.77-63.21-44.64-15.92-93.8,14.93-94.79,63.21-.63,49.83,49.65,83.41,95.88,65.83,27.26-9.96,46.26-36.61,45.69-65.83h0Z"/><path class="b" d="M201.6,34.91l13.96,2.05,59.01,104.7-59.01,104.7-14.92,2.2,60.38-106.89-59.42-106.75Z"/><polygon class="b" points="22.44 141.66 82.83 248.51 67.9 246.35 8.89 141.66 67.9 36.96 81.77 35 22.44 141.66"/><path class="b" d="M111.73,136.34l-1.65,33.56-3.63,1.01-18.64-27.92,4.83-1.34,13.29,20.39.87-24.32,4.92-1.37Z"/><path class="b" d="M141.98,140.88c.18.59.5,1.7.95,3.34.46,1.64.76,2.76.91,3.35.15.59.34,1.47.57,2.63.23,1.16.32,2.05.28,2.67-.05.62-.16,1.33-.33,2.14-.18.81-.49,1.6-.92,2.37-1.58,2.79-3.98,4.64-7.2,5.54-3.19.89-6.19.54-8.98-1.04-.77-.44-1.44-.95-2.01-1.56-.57-.6-1.04-1.16-1.42-1.67-.38-.52-.76-1.31-1.15-2.38-.39-1.07-.68-1.93-.88-2.59-.2-.66-.51-1.76-.94-3.32-.43-1.55-.73-2.66-.9-3.33-.17-.67-.36-1.56-.58-2.67-.22-1.12-.3-1.99-.24-2.63.06-.63.17-1.36.35-2.17.18-.81.49-1.6.92-2.37,1.58-2.79,3.97-4.63,7.16-5.52,3.22-.9,6.23-.55,9.03,1.02.77.44,1.44.96,2.01,1.56.57.6,1.03,1.15,1.39,1.66.36.51.74,1.31,1.14,2.43.4,1.11.69,1.96.87,2.55ZM139.73,152.11c-.11-1.29-.6-3.48-1.46-6.59-.86-3.11-1.58-5.24-2.15-6.4-.57-1.16-1.34-2.04-2.31-2.64-1.53-.94-3.23-1.15-5.1-.63s-3.22,1.58-4.05,3.17c-.52,1.01-.73,2.16-.62,3.45.11,1.29.6,3.48,1.46,6.59.86,3.11,1.58,5.24,2.15,6.4.57,1.16,1.34,2.04,2.31,2.63,1.53.94,3.23,1.15,5.1.63s3.22-1.58,4.05-3.17c.52-1.01.73-2.16.62-3.45Z"/><path class="b" d="M166.89,125.52l-8.46,2.35,7.38,26.54-4.66,1.3-7.38-26.54-8.46,2.35-1.16-4.19,21.58-6,1.16,4.19Z"/><path class="b" d="M201.37,144.53l-19.64,5.46-8.54-30.73,19.64-5.46,1.16,4.19-14.98,4.16,2.5,8.98,12.77-3.55,1.15,4.14-12.77,3.55,2.57,9.24,14.98-4.16,1.16,4.19Z"/></svg>