<?xml version="1.0" standalone="no"?>
<!DOCTYPE svg PUBLIC "-//W3C//DTD SVG 20010904//EN"
 "http://www.w3.org/TR/2001/REC-SVG-20010904/DTD/svg10.dtd">
<svg version="1.0" xmlns="http://www.w3.org/2000/svg"
 width="1500.000000pt" height="1500.000000pt" viewBox="0 0 1500.000000 1500.000000"
 preserveAspectRatio="xMidYMid meet">
<metadata>
Created by potrace 1.11, written by Peter Selinger 2001-2013
</metadata>
<g transform="translate(0.000000,1500.000000) scale(0.100000,-0.100000)"
fill="#000000" stroke="none">
<path d="M5884 11480 c-34 -13 -37 -28 -9 -46 23 -15 27 -15 50 0 28 19 33 41
9 50 -19 7 -23 7 -50 -4z"/>
<path d="M4640 11466 c-38 -12 -54 -45 -23 -47 44 -4 68 2 85 19 18 18 18 19
-4 29 -17 7 -33 7 -58 -1z"/>
<path d="M5780 11466 c0 -8 4 -17 9 -20 11 -7 33 18 24 27 -12 12 -33 7 -33
-7z"/>
<path d="M5996 11470 c-13 -4 0 -11 48 -24 36 -10 66 -21 66 -25 0 -4 -6 -16
-14 -26 -18 -25 -64 -29 -388 -29 l-266 -1 -26 24 c-29 27 -36 18 -9 -11 15
-17 13 -18 -74 -18 l-90 0 5 25 c4 22 1 25 -24 25 -16 0 -35 4 -42 9 -29 18
280 19 344 1 25 -7 47 -11 50 -8 2 3 0 18 -6 33 l-10 27 -213 -5 c-208 -5
-284 -11 -295 -22 -3 -3 6 -5 20 -5 18 0 25 -5 24 -17 -1 -12 13 -21 46 -32
48 -16 63 -30 31 -30 -10 1 -101 -2 -203 -5 -102 -3 -272 -8 -378 -11 l-194
-4 6 24 c8 30 6 30 -42 6 -51 -26 -122 -35 -362 -47 -232 -12 -401 -7 -432 12
-5 3 -12 -3 -15 -15 -5 -20 -10 -21 -107 -17 -95 4 -151 17 -168 41 -4 5 -8 6
-8 1 0 -6 10 -20 22 -33 l21 -23 -39 0 c-22 0 -57 10 -79 21 -38 20 -39 20
-22 2 9 -11 17 -24 17 -29 0 -5 -46 -9 -103 -10 -102 -1 -249 -10 -297 -18
-14 -3 -43 -7 -66 -10 -57 -7 -272 -45 -316 -55 -41 -10 -45 -7 -71 45 l-16
32 43 -2 c38 0 132 31 122 41 -5 5 -202 -38 -326 -71 -80 -22 -245 -85 -238
-91 2 -2 37 8 78 22 75 25 253 74 256 70 9 -10 31 -77 26 -78 -16 -1 -55 -10
-192 -43 -80 -19 -162 -37 -182 -40 -36 -6 -37 -6 -40 26 l-3 32 -26 -40 c-42
-65 -61 -123 -95 -302 -3 -12 -13 -47 -24 -76 -17 -43 -18 -59 -9 -82 6 -16
12 -42 15 -59 6 -42 5 -185 -1 -215 -9 -41 -7 -127 5 -171 26 -96 109 -201
186 -235 107 -47 381 -111 493 -114 9 0 11 -8 6 -27 -4 -16 -9 -41 -12 -58 -3
-16 -7 -37 -8 -45 -2 -8 -4 -35 -4 -60 -1 -36 -7 -52 -32 -79 -24 -26 -29 -39
-24 -60 4 -14 11 -50 17 -80 9 -53 9 -55 -20 -77 -27 -21 -29 -27 -22 -64 7
-38 6 -72 -4 -236 -3 -58 -1 -68 21 -95 17 -20 26 -44 28 -75 2 -25 9 -52 16
-60 15 -19 80 -48 139 -62 218 -54 313 -69 457 -71 158 -3 191 -6 273 -21 36
-7 81 -14 100 -15 19 -2 64 -6 100 -9 36 -3 105 -8 154 -11 106 -7 134 -11
246 -35 47 -10 112 -22 145 -25 33 -4 69 -9 80 -11 11 -2 67 -6 125 -9 64 -4
144 -16 205 -32 66 -17 134 -27 200 -29 171 -5 322 -14 337 -18 7 -3 40 -7 73
-11 33 -3 71 -8 85 -10 14 -2 39 -6 57 -9 17 -3 58 -10 90 -15 32 -6 78 -13
103 -17 71 -8 76 -12 49 -33 -13 -10 -31 -18 -39 -18 -24 0 -163 -13 -187 -17
-11 -3 -42 6 -67 20 -25 13 -49 24 -53 24 -4 0 -20 -23 -34 -50 l-27 -50 42 1
c22 0 64 4 93 8 l52 7 -15 -28 -15 -28 -112 6 c-61 4 -118 8 -127 9 -8 2 -33
4 -55 4 l-40 1 25 19 c13 11 27 19 30 19 3 0 22 0 43 1 35 1 37 3 37 34 l0 32
-18 -23 c-10 -13 -22 -19 -27 -14 -10 8 -67 29 -107 38 -13 4 -123 7 -244 8
l-221 3 -16 -26 -16 -26 -1 28 c0 25 -2 27 -27 20 -16 -5 -59 -7 -98 -6 -61 2
-420 4 -451 3 -13 0 -84 -65 -84 -76 0 -4 51 -4 113 0 186 11 252 21 283 41
18 12 20 11 20 -8 -1 -15 5 -22 19 -23 11 -1 67 -5 125 -9 185 -14 392 -7 472
16 49 14 66 11 86 -12 9 -12 23 -27 29 -34 10 -11 -91 -13 -560 -13 -314 1
-655 -3 -757 -7 -279 -12 -331 -11 -347 11 -7 10 -13 21 -13 26 0 14 58 8 108
-11 l49 -19 18 21 c10 12 30 36 46 52 l28 30 -197 -1 c-108 0 -249 -4 -312 -8
-63 -4 -144 -9 -180 -11 -98 -5 -293 -22 -345 -30 -16 -2 -57 -7 -90 -10 -33
-4 -73 -8 -90 -11 -16 -2 -75 -10 -130 -18 -55 -8 -122 -18 -150 -21 -90 -11
-109 -16 -152 -35 -46 -20 -51 -35 -28 -79 13 -27 13 -29 -11 -40 -14 -6 -31
-11 -39 -11 -20 0 -19 -16 0 -24 24 -9 18 -28 -39 -120 l-55 -87 19 -32 c20
-33 20 -34 0 -72 -24 -47 -24 -45 -2 -45 38 0 43 -15 16 -54 -25 -37 -25 -38
-7 -59 10 -12 22 -25 26 -28 5 -3 -5 -17 -21 -30 -29 -23 -30 -26 -18 -59 8
-24 9 -48 2 -77 -8 -39 -7 -45 14 -63 17 -14 26 -36 31 -76 15 -108 44 -142
146 -170 103 -27 126 -30 298 -39 66 -3 149 -11 185 -16 36 -6 92 -12 125 -15
145 -10 199 -15 207 -20 15 -10 6 -97 -14 -130 -24 -42 -25 -149 -1 -176 16
-18 16 -22 -2 -70 -10 -28 -19 -80 -20 -114 -1 -45 -6 -69 -19 -83 -15 -17
-17 -31 -11 -98 4 -43 20 -119 36 -169 16 -50 29 -94 29 -97 0 -8 -149 -23
-310 -32 -94 -5 -208 -14 -264 -20 -35 -5 -168 -14 -286 -20 -47 -3 -96 -7
-110 -10 -43 -9 -120 -39 -120 -47 0 -4 9 -22 20 -40 26 -43 25 -45 -10 -53
-25 -5 -35 -18 -60 -71 -16 -36 -44 -85 -60 -109 -29 -43 -28 -61 4 -49 19 7
22 -20 6 -61 -10 -26 -10 -26 30 -20 l39 6 -10 -30 c-10 -28 -13 -30 -50 -25
-21 3 -39 4 -39 2 0 -1 7 -25 15 -53 15 -48 15 -51 -6 -67 -23 -20 -17 -25 35
-30 l29 -3 -28 -33 c-38 -45 -46 -151 -16 -203 10 -19 22 -61 26 -94 7 -73 26
-100 94 -142 70 -42 184 -70 313 -78 58 -3 117 -8 130 -10 12 -2 59 -6 103
-10 44 -3 103 -8 130 -10 28 -3 82 -7 122 -9 70 -5 72 -4 97 27 l26 31 38 -37
c36 -35 74 -48 86 -28 15 24 152 36 202 18 37 -14 43 -14 57 0 31 32 94 -10
66 -43 -15 -18 -38 -18 -60 2 -15 13 -21 14 -41 3 -21 -12 -19 -14 42 -24 82
-14 179 -13 188 2 5 7 57 11 152 13 80 1 163 3 185 5 142 12 192 15 290 20
l110 5 20 -33 c14 -23 30 -34 55 -38 37 -7 33 -7 -65 -14 -33 -3 -78 -7 -100
-10 -22 -4 -55 -8 -74 -11 -19 -2 -38 -7 -43 -10 -6 -4 -65 -8 -131 -10 -126
-3 -257 -11 -292 -18 -11 -2 -49 -7 -85 -11 -36 -4 -72 -9 -81 -10 -9 -2 -40
-6 -70 -10 -30 -3 -65 -8 -79 -10 -184 -27 -347 -33 -419 -14 -48 12 -52 11
-74 -9 -16 -15 -34 -22 -56 -20 -26 2 -36 10 -58 48 -51 89 -56 92 -50 33 6
-51 6 -52 -26 -59 -43 -10 -114 -12 -127 -4 -6 4 -8 13 -5 21 4 10 20 13 59
12 51 -2 55 -1 66 28 7 16 11 31 9 33 -2 2 -38 -1 -79 -6 -53 -7 -85 -6 -108
2 -17 6 -40 9 -50 6 -9 -3 -67 -8 -128 -11 -61 -3 -119 -7 -130 -9 -56 -11
-107 -17 -174 -21 -164 -10 -295 -23 -340 -35 -19 -5 -55 -12 -80 -15 -92 -13
-114 -17 -138 -26 -14 -5 -27 -8 -29 -6 -2 3 -20 -1 -41 -8 -36 -13 -37 -14
-37 -67 -1 -72 2 -78 39 -78 l31 0 -37 -22 c-34 -19 -68 -68 -68 -97 0 -6 18
-21 40 -33 45 -26 46 -29 25 -88 -15 -43 -11 -60 19 -81 5 -4 5 -24 1 -45 -10
-47 -8 -70 10 -107 8 -15 12 -38 9 -51 -3 -18 6 -30 43 -56 44 -32 45 -34 25
-43 -12 -6 -22 -13 -22 -17 0 -13 113 -67 225 -109 61 -23 119 -45 130 -51 31
-15 114 -26 180 -24 33 1 107 3 165 4 58 2 123 0 145 -5 40 -9 178 -11 267 -5
43 3 47 6 42 26 -6 22 -5 22 37 8 23 -8 54 -15 68 -16 44 -1 315 12 336 16 11
2 49 7 85 11 36 4 68 9 71 10 3 2 46 7 95 10 114 9 122 10 228 29 49 9 170 18
269 21 253 7 321 13 385 31 38 11 104 18 202 19 80 2 161 6 180 11 19 4 107 7
195 6 100 0 192 5 245 14 47 8 150 16 230 19 142 4 216 9 315 20 180 20 589
41 970 50 83 2 209 6 280 9 72 4 234 9 360 11 198 4 334 10 460 20 17 1 44 -3
60 -8 29 -9 561 -18 920 -15 95 1 293 -5 565 -18 69 -3 157 -7 195 -9 39 -2
142 -7 230 -11 158 -7 281 -8 525 -3 94 1 151 -3 230 -19 149 -29 185 -34 275
-37 80 -3 248 -14 315 -21 19 -2 141 -6 270 -9 129 -3 253 -7 275 -9 76 -9
150 -18 200 -26 28 -4 120 -9 205 -10 85 -1 171 -3 190 -5 19 -2 80 -6 135
-10 55 -3 120 -8 145 -10 87 -7 206 -15 300 -20 52 -3 127 -8 165 -10 108 -8
309 -15 540 -20 116 -2 255 -7 310 -12 122 -9 734 -10 790 -1 65 11 165 40
165 48 0 4 36 56 79 114 89 120 100 144 107 247 3 40 15 103 28 140 13 36 22
79 20 95 -8 87 -28 204 -34 204 -18 0 -18 35 1 93 35 107 34 113 -8 174 -20
30 -45 59 -54 64 -9 4 -74 20 -143 34 l-127 26 -36 -32 c-35 -30 -39 -31 -97
-25 -34 4 -77 8 -98 10 -20 2 -60 9 -90 15 -29 6 -69 7 -88 3 -20 -4 -59 -3
-92 4 -53 11 -87 16 -213 30 -136 14 -173 20 -248 39 -32 8 -91 15 -130 15
-62 1 -80 5 -132 34 -65 36 -69 48 -34 95 16 22 17 32 9 61 -6 19 -13 60 -15
90 -13 134 -16 157 -27 185 -6 17 -17 37 -24 45 -11 13 -9 25 13 69 l27 53
-27 20 c-15 11 -35 34 -43 52 -9 17 -30 46 -47 63 -37 39 -35 45 50 143 83 97
95 130 94 261 -1 111 4 135 40 175 18 20 18 21 0 57 -12 24 -17 49 -14 76 5
46 -18 144 -53 220 -23 52 -24 55 -7 75 10 12 21 24 26 27 4 3 -5 33 -20 66
-26 60 -29 62 -96 89 -38 16 -71 34 -74 40 -7 20 35 106 69 141 17 18 32 45
33 60 2 15 6 57 10 93 11 101 13 151 5 187 -8 35 4 47 13 13 7 -27 21 -25 35
4 8 18 7 30 -5 52 -8 16 -17 45 -20 64 -2 19 -11 71 -19 115 -18 92 -24 208
-14 246 10 35 -50 114 -120 159 -41 26 -180 90 -196 90 -2 0 -4 -9 -4 -21 0
-21 -6 -21 -70 3 l-25 9 28 17 c38 23 34 31 -15 27 -48 -4 -128 -7 -142 -6 -6
1 1 11 14 23 l24 22 -45 13 c-43 13 -162 26 -246 27 -54 0 -56 14 -3 22 23 4
38 9 35 12 -11 12 -51 9 -78 -5 -32 -16 -33 -15 -161 42 -44 20 -56 29 -47 38
6 6 11 14 11 18 0 3 -51 6 -112 5 -105 -1 -208 16 -208 33 0 4 27 3 61 -3 43
-7 69 -7 90 1 25 10 30 9 26 -1 -4 -10 4 -11 31 -6 51 9 270 -2 291 -14 3 -2
37 -7 76 -11 38 -4 72 -8 75 -10 3 -2 70 -6 150 -10 80 -3 177 -12 215 -20 39
-8 86 -17 105 -20 19 -3 46 -8 60 -10 14 -3 57 -7 95 -10 192 -13 236 -18 311
-30 36 -6 44 -4 57 15 10 14 27 23 47 24 23 1 41 13 71 46 69 77 86 111 119
230 41 151 39 140 24 178 -12 29 -12 38 3 65 12 23 17 54 16 106 -2 65 -5 79
-32 117 -31 42 -40 91 -22 109 6 6 17 26 25 46 15 36 15 37 -15 72 -17 20 -41
43 -55 52 -39 25 -472 128 -668 159 -22 4 -71 13 -110 22 -39 8 -82 17 -96 20
-14 3 -56 11 -95 19 -38 8 -81 16 -95 19 -14 2 -63 11 -110 20 -89 16 -120 21
-184 31 -21 4 -48 9 -60 11 -23 4 -63 11 -111 19 -16 2 -41 7 -55 9 -14 3 -43
8 -65 11 -22 3 -69 10 -105 16 -36 6 -78 13 -95 16 -40 6 -263 43 -295 48 -14
3 -45 8 -70 11 -25 3 -54 8 -65 10 -11 2 -40 7 -65 10 -25 3 -47 7 -50 9 -3 2
-30 6 -60 10 -30 3 -62 8 -70 10 -8 2 -35 7 -60 11 -60 8 -72 10 -160 24 -41
6 -102 15 -135 20 -109 17 -138 21 -220 34 -16 2 -50 7 -75 10 -25 3 -54 8
-65 10 -11 2 -47 7 -80 11 -32 3 -62 8 -65 10 -3 2 -42 6 -88 10 -45 3 -91 8
-101 10 -11 2 -46 6 -78 10 -32 3 -168 24 -303 46 -135 22 -256 42 -270 44
-50 7 -106 15 -145 19 -55 7 -125 16 -155 21 -36 6 -201 34 -225 39 -64 13
-196 30 -320 42 -38 3 -72 8 -75 9 -3 2 -34 6 -70 10 -35 3 -67 8 -70 10 -16
10 -163 26 -231 26 -24 0 -93 11 -154 24 -60 13 -128 26 -150 30 -23 3 -52 7
-65 10 -14 3 -47 7 -75 11 -27 3 -79 12 -115 19 -61 14 -154 27 -280 41 -30 3
-77 10 -104 15 -27 5 -51 9 -55 10 -3 1 5 4 19 8 45 13 406 0 431 -15 10 -5
150 -6 174 -1 61 14 195 26 291 28 74 1 118 -4 224 -25 96 -18 398 -29 438
-15 23 8 37 7 59 -4 29 -15 180 -26 463 -32 321 -8 455 -18 560 -40 67 -14
156 -23 260 -24 167 -3 279 -9 331 -19 44 -8 75 -8 267 2 45 2 99 0 120 -4 55
-12 200 -24 437 -35 66 -4 131 -8 145 -10 23 -3 47 -6 200 -20 111 -11 139
-15 167 -26 33 -12 65 -16 233 -24 69 -3 150 -8 180 -10 30 -2 96 -7 145 -10
50 -3 108 -8 130 -10 22 -2 67 -7 100 -10 116 -11 348 -41 396 -51 13 -2 87
-7 164 -9 77 -2 154 -6 170 -9 81 -14 155 -21 198 -18 l47 3 77 102 c42 56 81
105 85 108 5 3 8 10 7 15 -2 7 7 71 16 114 0 3 7 32 14 66 12 56 12 64 -7 101
-16 30 -19 52 -16 94 3 30 7 95 9 144 1 50 6 100 10 112 6 19 2 23 -34 33 -23
6 -41 14 -41 17 0 4 12 19 27 35 l26 28 -54 24 c-30 13 -72 27 -94 30 -22 3
-74 14 -115 24 -41 11 -93 22 -115 25 -22 4 -85 13 -140 21 -55 8 -118 18
-140 21 -23 3 -52 8 -65 10 -14 3 -41 7 -60 10 -19 2 -48 6 -65 9 -16 2 -57 7
-90 11 -33 3 -71 7 -85 10 -14 2 -56 7 -95 10 -38 3 -81 8 -95 10 -14 2 -50 6
-80 9 -127 12 -177 17 -205 21 -16 2 -66 6 -110 10 -103 7 -164 13 -246 21
-70 6 -91 8 -289 18 -69 4 -132 9 -140 11 -8 2 -46 7 -85 11 -38 3 -77 7 -86
9 -9 2 -52 6 -95 9 -43 4 -101 9 -129 11 -27 2 -99 7 -160 10 -60 3 -130 8
-155 10 -25 3 -74 7 -110 10 -36 3 -86 8 -112 11 -33 4 -48 2 -48 -6 0 -10
-41 -8 -115 7 -11 2 -60 6 -110 9 -49 2 -112 7 -140 9 -147 14 -207 17 -242
10 l-38 -8 30 -8 c36 -11 110 -20 273 -34 47 -4 148 -26 187 -41 10 -4 15 0
15 11 0 11 6 15 18 11 17 -5 76 -18 100 -22 8 -1 16 -5 19 -8 4 -3 21 4 39 15
41 25 126 35 179 20 45 -12 141 -69 131 -78 -3 -3 -30 -8 -61 -10 -58 -4 -64
1 -45 38 6 10 7 19 3 20 -4 0 -21 3 -38 6 -16 3 -46 6 -65 7 -32 1 -35 -1 -32
-25 2 -21 -3 -28 -23 -31 -30 -6 -222 -1 -262 7 -15 3 -86 8 -158 11 -78 4
-133 11 -137 18 -26 40 -25 39 -61 11 -38 -30 -50 -31 -54 -1 -5 30 -13 33
-20 8 -7 -30 -20 -28 -38 8 -19 37 -25 38 -19 4 l5 -25 -133 5 c-73 4 -180 8
-238 11 -97 4 -202 13 -241 20 -9 2 -59 6 -110 10 -52 3 -114 8 -139 10 -41 4
-216 11 -480 20 -52 2 -147 6 -210 10 -227 13 -829 28 -1137 28 -232 -1 -232
-1 -228 21 2 11 4 24 4 29 1 4 16 6 33 5 20 -2 33 2 34 10 1 6 2 17 3 22 1 13
219 -1 273 -16 26 -8 106 16 88 26 -18 10 -618 19 -644 10z m191 -51 c26 -26
-22 -68 -57 -49 -24 13 -25 23 -4 44 18 19 45 21 61 5z m4013 -178 c47 -16
105 -38 130 -49 l45 -19 -85 3 c-98 5 -136 17 -167 53 -42 49 -36 50 77 12z
m1613 -174 c7 -18 -4 -33 -23 -32 -8 0 -16 10 -18 23 -3 16 2 22 16 22 11 0
22 -6 25 -13z m-918 -2621 c55 -6 85 -13 183 -42 82 -23 124 -41 72 -30 -14 3
-45 8 -70 11 -82 11 -115 16 -138 21 -13 3 -42 7 -64 10 -21 3 -47 7 -56 9 -9
2 -37 4 -61 4 -24 1 -42 4 -39 7 8 7 99 21 118 17 8 -1 33 -4 55 -7z m-5589
-168 c10 -15 -14 -26 -50 -22 -17 1 -41 3 -54 3 -26 1 -21 18 10 30 25 9 86 2
94 -11z m704 -3 c14 -4 60 -12 103 -18 73 -12 77 -13 64 -31 -11 -15 -26 -18
-73 -17 -32 0 -69 3 -82 5 -12 3 -59 8 -105 12 -45 3 -85 8 -89 11 -15 9 -7
30 15 40 22 11 120 9 167 -2z m748 -77 c31 -8 40 -13 29 -17 -30 -11 -97 0
-97 15 0 17 8 17 68 2z m-4153 -2202 c33 -13 61 -28 63 -34 9 -29 -135 -46
-408 -47 -155 0 -183 3 -247 23 -68 21 -114 49 -61 38 12 -3 75 -8 138 -11 63
-3 120 -6 125 -7 17 -1 296 14 314 17 9 2 20 4 24 4 4 1 3 10 -3 21 -13 25
-15 25 55 -4z m10165 -1151 c14 -3 45 -10 70 -15 25 -6 56 -13 69 -16 54 -12
55 -22 2 -29 -60 -8 -176 2 -206 18 -11 6 -21 9 -23 8 -3 -3 -65 10 -76 17 -6
3 8 11 30 18 37 12 80 12 134 -1z m420 -80 c61 -6 90 -11 165 -25 147 -29 166
-40 65 -34 -136 8 -299 27 -304 36 -1 2 -8 11 -16 21 -12 17 -11 18 11 13 13
-3 49 -8 79 -11z m-11525 -237 c44 0 92 3 107 5 27 6 108 -9 120 -21 4 -4 -21
-9 -55 -10 -34 -2 -78 -5 -97 -7 -19 -2 -78 -7 -130 -10 -52 -4 -98 -9 -101
-11 -4 -2 -13 3 -20 12 -20 25 19 53 63 46 18 -3 69 -5 113 -4z m-246 -22 c16
-19 3 -46 -24 -46 -32 0 -51 25 -35 45 16 19 44 19 59 1z"/>
<path d="M6780 11470 c0 -17 64 -41 105 -39 51 3 88 29 41 29 -14 0 -28 1 -31
2 -14 6 -115 13 -115 8z"/>
<path d="M7352 11455 c-18 -21 2 -55 33 -55 18 0 26 7 31 24 3 14 3 30 -1 35
-9 16 -48 13 -63 -4z"/>
<path d="M4823 11452 c-51 -5 -39 -19 18 -21 27 -1 53 -2 57 -2 23 -4 51 3 68
16 17 14 14 15 -46 13 -36 -2 -80 -4 -97 -6z"/>
<path d="M4315 11443 c-30 -8 -42 -23 -19 -24 10 0 26 -2 34 -3 8 -2 36 -6 63
-9 26 -3 52 -9 57 -12 10 -6 90 33 90 44 0 8 -198 11 -225 4z"/>
<path d="M3795 11420 l-40 -6 35 -8 c56 -14 140 -6 140 12 0 9 -77 9 -135 2z"/>
<path d="M8079 11409 c-6 -3 2 -10 18 -14 59 -15 88 -16 108 -1 18 14 18 16 3
17 -49 5 -119 4 -129 -2z"/>
<path d="M3220 11399 c0 -19 34 -30 89 -28 71 3 80 15 18 24 -67 10 -107 12
-107 4z"/>
<path d="M8256 11401 c-13 -21 106 -37 339 -46 60 -2 137 -7 170 -11 77 -9
206 -7 217 4 5 5 3 9 -4 9 -7 0 -39 3 -70 7 -64 7 -136 14 -216 20 -29 3 -134
8 -235 12 -100 3 -185 8 -189 10 -4 2 -9 0 -12 -5z"/>
<path d="M7240 11386 c0 -24 18 -28 30 -6 9 17 8 20 -10 20 -11 0 -20 -6 -20
-14z"/>
<path d="M2938 11375 c-2 -2 -18 -5 -36 -8 -54 -9 -50 -17 9 -17 32 0 63 -6
76 -15 15 -11 22 -12 25 -3 2 6 26 20 54 29 l49 18 -87 -1 c-48 0 -89 -2 -90
-3z"/>
<path d="M2544 11325 c-19 -15 -19 -15 0 -30 11 -8 27 -15 36 -15 22 0 54 35
45 49 -9 16 -58 13 -81 -4z"/>
<path d="M12970 9370 c-13 -8 -13 -11 2 -26 14 -14 20 -15 33 -4 12 10 13 16
4 26 -13 16 -19 17 -39 4z"/>
<path d="M3402 8372 c-20 -2 -30 -7 -26 -14 4 -6 10 -25 13 -41 l6 -30 113 -2
c61 -1 112 -1 112 1 0 2 -10 24 -22 49 l-22 46 -71 -3 c-38 -2 -85 -4 -103 -6z"/>
<path d="M2287 4669 c-54 -8 -62 -13 -52 -28 9 -16 82 -13 115 4 17 9 30 17
30 19 0 9 -49 11 -93 5z"/>
<path d="M2370 4625 c-11 -13 -11 -18 1 -30 19 -18 62 -2 57 22 -4 24 -41 28
-58 8z"/>
<path d="M2223 4552 c-7 -4 -9 -13 -4 -21 10 -16 31 -6 31 15 0 16 -9 18 -27
6z"/>
</g>
</svg>
