<svg xmlns="http://www.w3.org/2000/svg" xmlns:svgjs="http://svgjs.com/svgjs" xmlns:xlink="http://www.w3.org/1999/xlink" style="enable-background:new 0 0 512 512" width="512" height="512" x="0" y="0" version="1.1" viewBox="0 0 67 67" xml:space="preserve"><g><g xmlns="http://www.w3.org/2000/svg"><g><path fill="#fc0" d="m42.95306 55.42409h-30.85107c-3.15513 0-5.71286-2.55774-5.71286-5.71286v-39.93434h36.56394v45.6472z" data-original="#ffffff"/><path fill="#000" d="m49.72565 50.14555c0 2.91882-2.36283 5.28165-5.27238 5.28165h-32.89443c2.85396 0 5.16119-2.31651 5.16119-5.17047z" data-original="#8f9fff"/><g fill="#fff"><path fill="#fc0" d="m11.452 15.02h6.377v6.377h-6.377z" data-original="#ffffff"/><path fill="#fc0" d="m11.452 26.484h6.377v6.377h-6.377z" data-original="#ffffff"/><path fill="#fc0" d="m11.452 37.948h6.377v6.377h-6.377z" data-original="#ffffff"/></g></g><g><path fill="#fc0" d="m55.72885 39.61106-3.3349 6.18411-3.3349-6.18411v-22.44284c0-.6788.55028-1.22907 1.22907-1.22907h4.21166c.6788 0 1.22907.55027 1.22907 1.22907z" data-original="#ffffff"/><path fill="#fc0" d="m49.31577 40.08709 3.07815 5.70809 3.07822-5.70809z" data-original="#ffffff"/><path fill="#000" d="m54.07671 12.35289v3.58631h-3.36552v-3.58631c0-.92936.7534-1.68276 1.68276-1.68276.92936.00001 1.68276.7534 1.68276 1.68276z" data-original="#8f9fff"/></g><g fill="#2a44e2"><path fill="#000" d="m60.18262 18.27904c.13294.23759.43325.32901.68066.19434.24121-.13477.32813-.43848.19434-.68066-.88184-1.58691-1.90137-3.1084-3.03125-4.52393-.17188-.21533-.48633-.25049-.70215-.07861-.21582.17236-.25195.48682-.0791.70264 1.09472 1.37157 2.08398 2.84716 2.9375 4.38622z" data-original="#2a44e2"/><path fill="#000" d="m62.7002 21.20678c-.10547-.25391-.39746-.37402-.65332-.27246-.25489.10547-.37695.39746-.27246.65332 1.55566 3.78613 2.34473 7.79395 2.34473 11.91308 0 5.13281-1.26953 10.22949-3.67285 14.74023-.12988.24414-.03711.54688.20605.67676.24133.1285.54606.03971.67676-.20605 2.47949-4.65527 3.79004-9.91504 3.79004-15.21094-.00001-4.25-.81446-8.38574-2.41895-12.29394z" data-original="#2a44e2"/><path fill="#000" d="m49.17285 60.28392c-1.66015 1.03028-3.42285 1.90918-5.23828 2.61036-.25684.09961-.38574.38965-.28613.64746.09878.25383.38415.38541.64746.28613 1.87305-.72461 3.69141-1.63086 5.4043-2.69434.23438-.14551.30664-.4541.16113-.68848-.14649-.23437-.45508-.3037-.68848-.16113z" data-original="#2a44e2"/><path fill="#000" d="m40.00195 64.12377c-7.26758 1.75781-15.27051.79395-21.94141-2.70411-.24316-.12793-.54688-.03516-.6748.20996-.12891.24512-.03418.54688.20996.6748 4.6084 2.41797 9.80371 3.69532 15.02246 3.69532 2.57617 0 5.13965-.30371 7.61816-.90332.26855-.06543.43359-.33594.36914-.60352-.06444-.26854-.33202-.43065-.60351-.36913z" data-original="#2a44e2"/><path fill="#000" d="m18.18848 5.51684c4.50293-2.3335 9.35742-3.5166 14.42969-3.5166.27637 0 .5-.22363.5-.5s-.22363-.5-.5-.5c-5.23438 0-10.24414 1.2207-14.89063 3.62891-.24512.12695-.34082.42871-.21387.67383.12517.24208.42465.34222.67481.21386z" data-original="#2a44e2"/><path fill="#000" d="m36.03711 2.18822c1.30957.14453 2.62891.37451 3.92188.68457.26707.06343.53817-.1001.60254-.36963.06445-.26855-.10156-.53857-.37012-.60303-1.33301-.31934-2.69336-.55713-4.04492-.70605-.27441-.0332-.52148.16748-.55176.44238-.03028.27442.16797.52149.44238.55176z" data-original="#2a44e2"/><path fill="#000" d="m56.22852 17.63952v-.47083c0-.92767-.73474-1.68036-1.65137-1.72168v-3.09424c0-1.20361-.97949-2.18262-2.18359-2.18262-.83075 0-1.54614.47205-1.91479 1.15723-4.89117-3.94873-11.09924-6.32764-17.8606-6.32764-5.48706 0-10.6048 1.57715-14.95703 4.27734h-11.27247c-.27637 0-.5.22363-.5.5v13.89472c-1.13196 3.06616-1.75977 6.37415-1.75977 9.82892 0 3.44763.63 6.74646 1.75977 9.80609v6.40485c0 3.50378 3.06007 6.21582 5.66992 6.21582h3.51904c4.83972 3.79785 10.92664 6.07324 17.54053 6.07324 15.71582 0 28.50098-12.78516 28.50098-28.5 0-5.8789-1.82574-11.32031-4.89062-15.8612zm-6.0752 22.94714h4.48047l-2.24023 4.15527zm-.53998-1-.05475-.10156v-17.91895h2.33496v7.61426c0 .27637.22363.5.5.5s.5-.22363.5-.5v-7.61426h2.33496v17.91895l-.05475.10156zm5.61518-22.41797v3.39746h-5.66992v-3.39746c0-.40234.32715-.72949.72949-.72949h4.21191c.40137 0 .72852.32715.72852.72949zm-4.01758-4.81592c0-.65234.53027-1.18262 1.18262-1.18262s1.18359.53027 1.18359 1.18262v3.08643h-2.36621zm-46.08203 21.14795c0-2.19415.27008-4.32446.75977-6.37048v12.74365c-.49281-2.04565-.75977-4.1778-.75977-6.37317zm1.75976 16.21094v-39.43457h35.56445v39.3927l-25.73535.08679c-.27539.00098-.49805.22461-.49805.5 0 2.47717-1.94037 4.49078-4.37543 4.64197-2.75255-.13739-4.95562-2.40094-4.95562-5.18689zm8.53327 5.21289c-.10645-.08569-.21204-.17236-.3172-.25958 1.16486-.94202 1.95532-2.33148 2.09351-3.91034l32.00098-.10742c-.25098 2.40137-2.2832 4.28027-4.74609 4.28027h-8.97363v-.00293zm17.19622 6.07617c-5.91217 0-11.38971-1.88263-15.87714-5.07324h27.7121c3.18262 0 5.77246-2.59375 5.77246-5.78223 0-.13281-.05273-.26074-.14746-.35449s-.23926-.1377-.35449-.14551l-6.27051.02118v-39.88934c0-.27637-.22363-.5-.5-.5h-23.31945c3.87048-2.08496 8.28925-3.27734 12.9845-3.27734 6.69177 0 12.82056 2.41577 17.59277 6.40479v.3999h-2.46777c-.92285 0-1.67285.75049-1.67285 1.67285v11.66895c0 .27637.22363.5.5.5s.5-.22363.5-.5v-11.66895c0-.37109.30176-.67285.67285-.67285h2.46777v1.64258c-.9176.04132-1.65234.79401-1.65234 1.72168v3.89746 18.54492c0 .23692-.08315-.07226 3.39453 6.42188.08789.16211.25684.2627.44043.2627s.35254-.10059.44043-.2627c3.46373-6.46808 3.39453-6.18188 3.39453-6.42188v-18.54493-1.6076c2.45807 4.1153 3.89063 8.91022 3.89063 14.04217-.00001 15.16309-12.33692 27.5-27.50099 27.5z" data-original="#2a44e2"/><path fill="#000" d="m28.75781 16.75854h9.13281c.27636 0 .5-.22363.5-.5s-.22364-.5-.5-.5h-9.13281c-.27637 0-.5.22363-.5.5s.22364.5.5.5z" data-original="#2a44e2"/><path fill="#000" d="m20.98047 16.75854h3.93848c.27637 0 .5-.22363.5-.5s-.22363-.5-.5-.5h-3.93848c-.27637 0-.5.22363-.5.5s.22363.5.5.5z" data-original="#2a44e2"/><path fill="#000" d="m20.98047 20.65795h11.20215c.27637 0 .5-.22363.5-.5s-.22363-.5-.5-.5h-11.20215c-.27637 0-.5.22363-.5.5s.22363.5.5.5z" data-original="#2a44e2"/><path fill="#000" d="m11.45117 21.89721h6.37793c.27637 0 .5-.22363.5-.5v-6.37793c0-.27637-.22363-.5-.5-.5h-6.37793c-.27637 0-.5.22363-.5.5v6.37793c0 .27636.22363.5.5.5zm.5-6.37793h5.37793v5.37793h-5.37793z" data-original="#2a44e2"/><path fill="#000" d="m15.64551 17.01439-1.64648 1.30371-.39844-.47168c-.17773-.21094-.49414-.23633-.7041-.05957-.21094.17773-.23828.49316-.05957.7041l.71094.8418c.09863.11719.23926.17773.38184.17773.10938 0 .21875-.03516.31055-.1084l2.02637-1.60449c.2168-.1709.25293-.48535.08105-.70215-.17189-.21581-.48634-.25292-.70216-.08105z" data-original="#2a44e2"/><path fill="#000" d="m37.89063 27.2224h-9.13281c-.27637 0-.5.22363-.5.5s.22363.5.5.5h9.13281c.27636 0 .5-.22363.5-.5s-.22365-.5-.5-.5z" data-original="#2a44e2"/><path fill="#000" d="m20.98047 28.2224h3.93848c.27637 0 .5-.22363.5-.5s-.22363-.5-.5-.5h-3.93848c-.27637 0-.5.22363-.5.5s.22363.5.5.5z" data-original="#2a44e2"/><path fill="#000" d="m20.98047 32.12181h11.20215c.27637 0 .5-.22363.5-.5s-.22363-.5-.5-.5h-11.20215c-.27637 0-.5.22363-.5.5s.22363.5.5.5z" data-original="#2a44e2"/><path fill="#000" d="m11.45117 33.36107h6.37793c.27637 0 .5-.22363.5-.5v-6.37695c0-.27637-.22363-.5-.5-.5h-6.37793c-.27637 0-.5.22363-.5.5v6.37695c0 .27637.22363.5.5.5zm.5-6.37695h5.37793v5.37695h-5.37793z" data-original="#2a44e2"/><path fill="#000" d="m15.64551 28.47826-1.64648 1.30371-.39844-.47168c-.17773-.21094-.49414-.23535-.7041-.05957-.21094.17773-.23828.49316-.05957.7041l.71094.84277c.09863.11719.23926.17773.38184.17773.10938 0 .21875-.03516.31055-.1084l2.02637-1.60547c.2168-.1709.25293-.48535.08105-.70215-.17189-.21776-.48634-.25389-.70216-.08104z" data-original="#2a44e2"/><path fill="#000" d="m37.89063 38.68724h-9.13281c-.27637 0-.5.22363-.5.5s.22363.5.5.5h9.13281c.27636 0 .5-.22363.5-.5s-.22365-.5-.5-.5z" data-original="#2a44e2"/><path fill="#000" d="m20.98047 39.68724h3.93848c.27637 0 .5-.22363.5-.5s-.22363-.5-.5-.5h-3.93848c-.27637 0-.5.22363-.5.5s.22363.5.5.5z" data-original="#2a44e2"/><path fill="#000" d="m20.98047 43.58666h11.20215c.27637 0 .5-.22363.5-.5s-.22363-.5-.5-.5h-11.20215c-.27637 0-.5.22363-.5.5s.22363.5.5.5z" data-original="#2a44e2"/><path fill="#000" d="m17.8291 44.82494c.27637 0 .5-.22363.5-.5v-6.37695c0-.27637-.22363-.5-.5-.5h-6.37793c-.27637 0-.5.22363-.5.5v6.37695c0 .27637.22363.5.5.5zm-5.87793-6.37695h5.37793v5.37695h-5.37793z" data-original="#2a44e2"/><path fill="#000" d="m15.64551 39.94213-1.64648 1.30469-.39844-.47168c-.17773-.21094-.49414-.23633-.7041-.05957-.21094.17773-.23828.49316-.05957.7041l.71094.8418c.09863.11719.24023.17773.38184.17773.10938 0 .21875-.03516.31055-.1084l2.02637-1.60547c.2168-.1709.25293-.48535.08105-.70215-.17189-.21875-.48634-.25293-.70216-.08105z" data-original="#2a44e2"/><path fill="#000" d="m2.38086 15.44604c-.27637 0-.5.22363-.5.5v7.32227c0 .27637.22363.5.5.5s.5-.22363.5-.5v-7.32227c0-.27637-.22363-.5-.5-.5z" data-original="#2a44e2"/><path fill="#000" d="m2.38086 11.14086c-.27637 0-.5.22363-.5.5v1.85742c0 .27637.22363.5.5.5s.5-.22363.5-.5v-1.85742c0-.27637-.22363-.5-.5-.5z" data-original="#2a44e2"/></g></g></g></svg>