<svg xmlns="http://www.w3.org/2000/svg" xmlns:svgjs="http://svgjs.com/svgjs" xmlns:xlink="http://www.w3.org/1999/xlink" style="enable-background:new 0 0 512 512" width="512" height="512" x="0" y="0" version="1.1" viewBox="0 0 67 67" xml:space="preserve"><g><g xmlns="http://www.w3.org/2000/svg"><g><path fill="#fc0" d="m11.703 35.03h43.909v25.784h-43.909z" data-original="#ffffff"/><path fill="#fff" d="m55.61797 35.0239-4.70228 4.02679-15.41881 12.10653h-3.68912l-15.40581-12.09353-4.70228-4.03979 4.70228-3.24743 17.25033-11.04128 17.26341 11.04128z" data-original="#8f9fff"/><path fill="#fc0" d="m50.91569 15.06653v23.98416l-15.41881 12.10653h-3.68912l-15.40581-12.09353v-23.99716z" data-original="#ffffff"/><path fill="#fff" d="m55.61797 60.8085h-43.9183l21.95261-12.88572z" data-original="#8f9fff"/><g><path fill="#fff" d="m43.21279 29.55527c0 5.27375-4.28668 9.54743-9.56051 9.54743s-9.54743-4.27368-9.54743-9.54743 4.2736-9.56043 9.54743-9.56043 9.56051 4.28668 9.56051 9.56043z" data-original="#8f9fff"/></g></g><g fill="#2a44e2"><path fill="#000" d="m45.63854 3.14613c1.43066.59766 2.83496 1.31152 4.17578 2.12305.23856.14371.54476.06585.68652-.16895.14258-.23633.06738-.54395-.16895-.68652-1.38281-.83691-2.83203-1.57422-4.30859-2.18945-.25195-.10742-.54688.0127-.65332.26855-.10644.25489.01368.54786.26856.65332z" data-original="#2a44e2"/><path fill="#000" d="m53.64342 6.70668c-.21289-.16797-.53027-.13281-.70215.08496-.16992.2168-.13281.53125.08496.70215 6.44727 5.06738 10.81348 12.5127 11.97852 20.42676.03765.25168.26414.45698.56836.42188.27246-.04102.46191-.29492.42188-.56836-1.20313-8.16407-5.70508-15.84278-12.35157-21.06739z" data-original="#2a44e2"/><path fill="#000" d="m14.23913 7.46352c.21582-.1709.25293-.48535.08105-.70215-.17188-.21582-.4873-.25391-.70215-.08105-8.20508 6.49316-13.02929 17.06738-12.59082 27.5957.01172.26953.2334.47949.5.47949h.02051c.27637-.01172.49023-.24512.47949-.52051-.42676-10.21484 4.25293-20.47265 12.21192-26.77148z" data-original="#2a44e2"/><path fill="#000" d="m33.66393 3.77211c-15.84375 0-28.73437 12.88574-28.73437 28.72363 0 6.75458 2.35333 12.96301 6.27344 17.8703v10.40094c.07199.10052.00435.54614.5.54614h43.90918c.00861 0 .01575-.00446.02423-.00488h.00116c.27637 0 .5-.22363.5-.5 0-.13646-.02506-10.29208-.02539-10.42792 3.92151-4.91138 6.27637-11.12555 6.27637-17.88458-.00001-15.83789-12.88575-28.72363-28.72462-28.72363zm17.75195 28.95667 3.38379 2.33728-3.38379 2.89825zm3.69629 3.38677v23.81628l-17.1601-10.06683zm-21.45996 12.38703 20.125 11.80566h-40.2373zm16.76367-9.69544c-3.30602 2.59579-10.07198 7.90823-13.39075 10.51404l-3.12-1.83032c-.15625-.0918-.34961-.0918-.50586 0l-3.1195 1.83112-13.37756-10.50104v-23.25488h33.51367zm-34.51367-.83184-3.38477-2.90826 3.38477-2.33844zm13.45081 11.89068-17.15003 10.06696v-23.81769c23.50247 18.84407 15.39644 12.34473 17.15003 13.75073zm26.75915-1.16186v-13.6742c0-.00073-.00043-.00134-.00043-.00208.00006-.01044.00592-.01965.00531-.03015-.00674-.13379-.13298-.32855-.21484-.38477l-4.48633-3.09863v-16.44823c0-.27637-.22363-.5-.5-.5h-34.51367c-.27637 0-.5.22363-.5.5v16.44794l-4.48633 3.09894c-.06826.04687-.20792.2474-.21484.38477-.00043.00781.00397.01465.00391.0224-.00006.00348-.00195.00635-.00195.00983v13.65027c-3.30072-4.55963-5.27344-10.13831-5.27344-16.18445 0-15.28711 12.44141-27.72363 27.73437-27.72363 15.28711 0 27.72461 12.43652 27.72461 27.72363 0 6.05345-1.97077 11.64427-5.27637 16.20836z" data-original="#2a44e2"/><path fill="#000" d="m30.5487 32.10902c.15446.22154.4548.27553.6748.13672l7.23926-4.54199c.23438-.14746.30469-.45605.1582-.68945-.14746-.2334-.45703-.30469-.68945-.1582l-6.83691 4.29004-1.56738-2.23438c-.1582-.22656-.47168-.28125-.69629-.12207-.22656.1582-.28125.4707-.12207.69629z" data-original="#2a44e2"/><path fill="#000" d="m50.17955 63.81508h-22.35058c-.27637 0-.5.22363-.5.5s.22363.5.5.5h22.35058c.27637 0 .5-.22363.5-.5s-.22363-.5-.5-.5z" data-original="#2a44e2"/><path fill="#000" d="m23.52331 63.81508h-5.06738c-.27637 0-.5.22363-.5.5s.22363.5.5.5h5.06738c.27637 0 .5-.22363.5-.5s-.22364-.5-.5-.5z" data-original="#2a44e2"/><path fill="#000" d="m59.37876 50.65688c-.27636 0-.5.22363-.5.5v7.26758c0 .27637.22364.5.5.5.27638 0 .5-.22363.5-.5v-7.26758c0-.27637-.22362-.5-.5-.5z" data-original="#2a44e2"/><path fill="#000" d="m6.94909 50.65688c-.27637 0-.5.22363-.5.5v7.26758c0 .27637.22363.5.5.5s.5-.22363.5-.5v-7.26758c0-.27637-.22364-.5-.5-.5z" data-original="#2a44e2"/></g></g></g></svg>