<?xml version="1.0" encoding="UTF-8"?><svg id="a" xmlns="http://www.w3.org/2000/svg" viewBox="0 0 3286.48 595.89"><defs><style>.b{fill:#000;}.b,.c,.d,.e,.f{stroke-width:0px;}.c{fill:#ffd209;}.d{fill:#fff8da;}.e{fill:#fff1b5;}.f{fill:#ffe46b;}</style></defs><path class="b" d="M1388.31,18.92l-84.41,12.44-153.97,273.14,153.97,273.14,84.41,12.44-163.87-285.57L1388.31,18.92ZM1604.63,18.92l84.41,12.44,153.97,273.14-153.97,272.99-84.41,12.44,163.87-285.57L1604.64,18.92h-.01Z"/><path class="d" d="M1388.31,18.92l108.16-12.44v298.02h-272.03L1388.31,18.92Z"/><path class="f" d="M1388.31,589.93l108.16,12.44v-297.88h-272.03l163.87,285.43h0Z"/><path class="c" d="M1604.64,589.93l-108.16,12.44v-297.88h272.03l-163.87,285.43h0Z"/><path class="e" d="M1604.64,18.92l-108.16-12.44v298.02h272.03L1604.64,18.92Z"/><path class="b" d="M2231.93,241.47c-4.36,25.94-15.03,46.06-32,60.36-16.97,14.3-38.06,21.45-63.27,21.45-27.64,0-50.91-9.45-69.82-28.36-11.15-11.15-18.18-24.12-21.09-38.91-2.91-14.55-4.36-36-4.36-64.36s1.45-49.82,4.36-64.36c2.91-14.79,9.94-27.76,21.09-38.91,18.91-18.91,42.18-28.36,69.82-28.36,25.21,0,46.3,7.15,63.27,21.45,16.97,14.3,27.64,34.42,32,60.36h-51.27c-6.06-24.48-20.61-36.73-43.64-36.73-14.07,0-24.85,4.49-32.36,13.45-5.33,5.58-8.85,12.97-10.55,22.18-1.45,8.97-2.18,25.94-2.18,50.91s.73,42.06,2.18,51.27c1.7,8.97,5.22,16.24,10.55,21.82,7.51,8.97,18.3,13.45,32.36,13.45,23.03,0,37.57-12.24,43.64-36.73h51.27v.02ZM2422.52,226.2c0,18.18-1.58,32.97-4.73,44.36-2.91,11.15-8.49,20.97-16.73,29.45-14.54,15.52-34.18,23.27-58.91,23.27s-44-7.76-58.55-23.27c-8.24-8.48-13.94-18.3-17.09-29.45-2.91-11.39-4.36-26.18-4.36-44.36s1.45-32.48,4.36-43.64c3.15-11.39,8.85-21.33,17.09-29.82,14.55-15.52,34.06-23.27,58.55-23.27s44.36,7.76,58.91,23.27c8.24,8.48,13.82,18.42,16.73,29.82,3.15,11.15,4.73,25.7,4.73,43.64ZM2375.25,226.2c0-23.27-3.64-38.55-10.91-45.82-5.57-5.58-12.97-8.36-22.18-8.36s-16.24,2.79-21.82,8.36c-7.27,7.27-10.91,22.55-10.91,45.82s3.64,38.91,10.91,46.18c5.58,5.58,12.85,8.36,21.82,8.36s16.61-2.79,22.18-8.36c7.27-7.27,10.91-22.67,10.91-46.18h0ZM2733.42,321.11h-47.27v-114.55c0-11.88-3.15-20.61-9.46-26.18-6.06-5.58-13.34-8.36-21.82-8.36s-15.88,2.79-22.18,8.36c-6.3,5.33-9.46,13.7-9.46,25.09v115.64h-47.27v-114.55c0-11.88-3.15-20.61-9.46-26.18-6.06-5.58-13.34-8.36-21.82-8.36s-16.24,2.79-22.54,8.36c-6.06,5.58-9.09,14.3-9.09,26.18v114.55h-47.28v-189.45h46.18v17.45c12.61-13.09,28.37-19.64,47.28-19.64,21.82,0,38.54,8,50.18,24,15.27-16,34.18-24,56.72-24,19.88,0,35.4,5.58,46.55,16.73,13.82,13.82,20.73,31.76,20.73,53.82v121.09h.01ZM3050.14,321.11h-47.27v-114.55c0-11.88-3.15-20.61-9.46-26.18-6.06-5.58-13.33-8.36-21.82-8.36s-15.88,2.79-22.19,8.36c-6.3,5.33-9.46,13.7-9.46,25.09v115.64h-47.27v-114.55c0-11.88-3.15-20.61-9.46-26.18-6.06-5.58-13.34-8.36-21.82-8.36s-16.24,2.79-22.54,8.36c-6.06,5.58-9.09,14.3-9.09,26.18v114.55h-47.27v-189.45h46.18v17.45c12.6-13.09,28.36-19.64,47.27-19.64,21.82,0,38.54,8,50.18,24,15.28-16,34.18-24,56.73-24,19.87,0,35.39,5.58,46.54,16.73,13.82,13.82,20.73,31.76,20.73,53.82v121.09h.02ZM3146.5,321.11h-47.27v-189.45h47.27v189.45ZM3146.86,99.29h-48.36v-38.55h48.36v38.55ZM3282.64,321.11h-25.81c-17.94,0-31.64-5.33-41.1-16-9.21-10.67-13.82-23.39-13.82-38.18v-93.82h-20v-36h20v-56h47.28v56h33.45v36h-33.45v90.91c0,11.39,5.46,17.09,16.36,17.09h17.09v40Z"/><path class="b" d="M2129.81,486.88c0,8.56-.88,15.58-2.63,21.07-1.65,5.49-4.5,10.37-8.56,14.65-8.78,8.89-19.8,13.33-33.08,13.33-12.51,0-23.04-4.28-31.6-12.84-5.05-5.05-8.23-10.92-9.55-17.61-1.32-6.58-1.98-16.29-1.98-29.13s.66-22.55,1.98-29.13c1.32-6.69,4.5-12.56,9.55-17.61,8.56-8.56,19.09-12.84,31.6-12.84s22.71,3.51,30.28,10.53c7.57,7.02,12.18,16.02,13.83,26.99h-23.04c-2.85-11.41-9.88-17.12-21.07-17.12-6.14,0-11.03,2.09-14.65,6.25-2.31,2.85-3.84,6.31-4.61,10.37-.66,3.95-.99,11.47-.99,22.55s.33,18.98.99,23.04c.77,3.95,2.3,7.3,4.61,10.04,3.4,4.06,8.28,6.09,14.65,6.09,6.8,0,12.24-2.19,16.29-6.58,3.51-4.06,5.27-9.27,5.27-15.64v-4.44h-21.56v-19.09h44.28v17.12h-.01ZM2233.79,534.94h-76.04v-117.19h22.87v96.78h53.17v20.41ZM2337.13,461.7c.11,3.07.16,7.96.16,14.65s-.06,11.58-.16,14.65c-.11,3.07-.49,6.91-1.15,11.52-.66,4.5-1.86,8.34-3.62,11.52-1.65,3.18-3.89,6.2-6.75,9.05-8.56,8.56-19.09,12.84-31.6,12.84s-23.21-4.28-31.76-12.84c-2.86-2.85-5.1-5.82-6.75-8.89-1.65-3.18-2.8-7.13-3.46-11.85-.66-4.72-1.04-8.5-1.15-11.36-.11-2.85-.16-7.74-.16-14.65s.05-11.8.16-14.65c.11-2.85.49-6.64,1.15-11.36.66-4.72,1.81-8.61,3.46-11.69,1.65-3.18,3.89-6.2,6.75-9.05,8.56-8.56,19.15-12.84,31.76-12.84s23.04,4.28,31.6,12.84c2.86,2.85,5.1,5.87,6.75,9.05,1.76,3.18,2.96,7.08,3.62,11.69.66,4.5,1.04,8.28,1.15,11.36h0ZM2313.26,499.23c.77-4.28,1.15-11.91,1.15-22.88s-.38-18.54-1.15-22.71c-.77-4.28-2.31-7.68-4.61-10.2-3.62-4.17-8.5-6.25-14.65-6.25s-11.2,2.09-14.81,6.25c-2.31,2.52-3.84,5.87-4.61,10.04-.66,4.17-.99,11.8-.99,22.88s.33,18.71.99,22.88c.77,4.17,2.3,7.52,4.61,10.04,3.62,4.17,8.56,6.25,14.81,6.25s11.03-2.09,14.65-6.25c2.31-2.52,3.84-5.87,4.61-10.04h0ZM2452.11,501.21c0,10.64-3.29,18.93-9.88,24.85-6.59,5.93-15.25,8.89-26.01,8.89h-49.05v-117.19h47.07c11.31,0,20.14,2.96,26.5,8.89,6.47,5.93,9.71,13.94,9.71,24.03,0,5.93-1.54,11.03-4.61,15.31-2.96,4.17-6.26,7.13-9.88,8.89,10.75,5.05,16.13,13.83,16.13,26.34h.02ZM2425.28,510.43c2.63-2.74,3.95-6.2,3.95-10.37s-1.32-7.57-3.95-10.2c-2.63-2.74-6.42-4.11-11.36-4.11h-23.86v28.8h23.86c4.94,0,8.73-1.37,11.36-4.11h0ZM2423.63,461.55c2.63-2.52,3.95-5.82,3.95-9.88s-1.32-7.3-3.95-9.71c-2.63-2.52-6.36-3.79-11.19-3.79h-22.39v26.99h22.39c4.83,0,8.56-1.21,11.19-3.62h0ZM2572.62,534.96h-23.87l-6.91-20.74h-41.64l-7.08,20.74h-23.87l42.63-117.19h17.94l42.79,117.19h.01ZM2535.75,494.96l-14.32-42.63-14.81,42.63h29.13ZM2669.68,534.96h-76.04v-117.19h22.88v96.78h53.16v20.41h0Z"/><path class="b" d="M129.14,204.89c-3.05,18.1-10.49,32.14-22.33,42.13-11.84,9.98-26.56,14.97-44.16,14.97-19.29,0-35.53-6.6-48.72-19.79-7.78-7.78-12.69-16.83-14.72-27.15-2.03-10.15-3.05-25.12-3.05-44.92s1.01-34.77,3.05-44.92c2.03-10.32,6.93-19.37,14.72-27.15,13.2-13.2,29.44-19.79,48.72-19.79,17.59,0,32.31,4.99,44.16,14.97,11.84,9.98,19.29,24.02,22.33,42.13h-35.78c-4.23-17.09-14.38-25.63-30.45-25.63-9.81,0-17.34,3.13-22.59,9.39-3.72,3.89-6.13,9.01-7.23,15.35s-1.65,18.23-1.65,35.65.55,29.31,1.65,35.65c1.1,6.34,3.51,11.46,7.23,15.35,5.24,6.26,12.77,9.39,22.59,9.39,16.07,0,26.22-8.54,30.45-25.63h35.78Z"/><path class="b" d="M263.39,194.23c0,12.69-1.06,22.97-3.17,30.83-2.12,7.87-6.05,14.76-11.8,20.68-10.15,10.83-23.85,16.24-41.11,16.24s-30.71-5.41-40.86-16.24c-5.75-5.92-9.69-12.82-11.8-20.68-2.12-7.87-3.17-18.14-3.17-30.83s1.05-22.71,3.17-30.58c2.11-7.87,6.05-14.76,11.8-20.68,10.15-10.82,23.77-16.24,40.86-16.24s30.96,5.42,41.11,16.24c5.75,5.92,9.68,12.82,11.8,20.68,2.11,7.87,3.17,18.06,3.17,30.58h0ZM230.4,194.23c0-16.24-2.54-26.9-7.61-31.97-3.89-3.89-9.05-5.84-15.48-5.84s-11.34,1.95-15.23,5.84c-5.08,5.08-7.61,15.73-7.61,31.97s2.54,27.15,7.61,32.23c3.89,3.89,8.97,5.84,15.23,5.84s11.59-1.94,15.48-5.84c5.08-5.08,7.61-15.82,7.61-32.23Z"/><path class="b" d="M400.17,260.46h-32.23v-12.43c-8.29,9.31-19.2,13.96-32.74,13.96s-24.53-3.97-32.48-11.93c-4.06-4.06-7.15-9.6-9.26-16.62-2.12-7.02-3.34-13.11-3.68-18.27s-.51-12.14-.51-20.94.17-15.77.51-20.94c.34-5.16,1.56-11.21,3.68-18.14,2.11-6.94,5.2-12.43,9.26-16.49,7.95-7.95,18.69-11.93,32.23-11.93s24.27,4.4,32.23,13.2v-60.14h32.99v180.68h0ZM362.74,222.65c2.96-6.43,4.44-15.9,4.44-28.42s-1.48-21.95-4.44-28.3c-2.96-6.34-9.01-9.52-18.14-9.52s-15.14,3.17-18.02,9.52c-2.88,6.34-4.31,15.78-4.31,28.3,0,6.09.25,11.17.76,15.23s1.48,7.95,2.92,11.67,3.72,6.51,6.85,8.37,7.06,2.79,11.8,2.79c9.14,0,15.18-3.21,18.14-9.64h0Z"/><path class="b" d="M545.83,204.63h-82.73c0,8.8,2.58,15.9,7.74,21.32,5.16,5.42,12.22,8.12,21.19,8.12,6.93,0,12.56-.97,16.88-2.92,4.31-1.94,8.67-5.11,13.07-9.52l20.05,19.54c-7.28,7.28-14.64,12.56-22.08,15.86-7.45,3.3-16.84,4.95-28.17,4.95-8.46,0-16.11-1.06-22.97-3.17-6.85-2.11-13.24-5.62-19.16-10.53s-10.57-11.93-13.96-21.06c-3.39-9.14-5.08-20.13-5.08-32.99,0-21.15,5.24-37.68,15.73-49.61,10.49-11.93,24.44-17.89,41.87-17.89s32.01,5.88,42.25,17.64c10.23,11.76,15.35,26.94,15.35,45.55v14.72h.02ZM513.35,182.04c-.17-5.24-1.19-9.98-3.05-14.21-4.06-9.14-11.42-13.7-22.08-13.7s-18.02,4.57-22.08,13.7c-1.86,4.23-2.88,8.97-3.05,14.21h50.26Z"/><path class="b" d="M696.56,157.18h-24.36v103.28h-32.99v-103.28h-13.7v-25.12h13.7v-16.49c0-10.32,3.3-19.2,9.9-26.65,6.6-7.44,16.15-11.17,28.68-11.17h18.78v27.91h-12.94c-7.61,0-11.42,3.98-11.42,11.93v14.46h24.36v25.12h-.01Z"/><path class="b" d="M824.21,194.23c0,12.69-1.06,22.97-3.17,30.83-2.12,7.87-6.05,14.76-11.8,20.68-10.15,10.83-23.85,16.24-41.11,16.24s-30.71-5.41-40.86-16.24c-5.75-5.92-9.69-12.82-11.8-20.68-2.12-7.87-3.17-18.14-3.17-30.83s1.05-22.71,3.17-30.58c2.11-7.87,6.05-14.76,11.8-20.68,10.15-10.82,23.77-16.24,40.86-16.24s30.96,5.42,41.11,16.24c5.75,5.92,9.68,12.82,11.8,20.68,2.11,7.87,3.17,18.06,3.17,30.58h0ZM791.22,194.23c0-16.24-2.54-26.9-7.61-31.97-3.89-3.89-9.05-5.84-15.48-5.84s-11.34,1.95-15.23,5.84c-5.08,5.08-7.61,15.73-7.61,31.97s2.54,27.15,7.61,32.23c3.89,3.89,8.97,5.84,15.23,5.84s11.59-1.94,15.48-5.84c5.08-5.08,7.61-15.82,7.61-32.23Z"/><path class="b" d="M952.36,139.16l-24.87,25.12c-5.25-5.24-11.08-7.87-17.51-7.87-5.58,0-10.53,2.12-14.85,6.34-4.31,4.23-6.47,10.24-6.47,18.02v79.68h-32.99v-132.21h32.23v12.69c3.38-4.06,8.08-7.44,14.08-10.15,6-2.7,12.39-4.06,19.16-4.06,12.52,0,22.92,4.15,31.21,12.43h0Z"/><path class="b" d="M139.04,532.63h-40.86l-35.27-72.07h-25.38v72.07H2.26v-180.68h70.8c17.93,0,32.18,5.33,42.76,15.99,10.57,10.66,15.86,23.77,15.86,39.33,0,12.01-3.13,22.08-9.39,30.2-6.26,8.12-14.13,13.87-23.6,17.26l40.35,77.91h0ZM89.3,424.53c4.73-4.4,7.11-10.15,7.11-17.26s-2.37-12.86-7.11-17.26c-4.74-4.4-10.91-6.6-18.52-6.6h-33.24v47.71h33.24c7.61,0,13.79-2.2,18.52-6.6h0Z"/><path class="b" d="M272.01,466.4c0,12.69-1.06,22.97-3.17,30.83-2.12,7.87-6.05,14.76-11.8,20.68-10.15,10.83-23.85,16.24-41.11,16.24s-30.71-5.41-40.86-16.24c-5.75-5.92-9.69-12.82-11.8-20.68-2.12-7.87-3.17-18.14-3.17-30.83s1.05-22.71,3.17-30.58c2.11-7.87,6.05-14.76,11.8-20.68,10.15-10.82,23.77-16.24,40.86-16.24s30.96,5.42,41.11,16.24c5.75,5.92,9.68,12.82,11.8,20.68,2.11,7.87,3.17,18.06,3.17,30.58ZM239.02,466.4c0-16.24-2.54-26.9-7.61-31.97-3.89-3.89-9.05-5.84-15.48-5.84s-11.34,1.95-15.23,5.84c-5.08,5.08-7.61,15.73-7.61,31.97s2.54,27.15,7.61,32.23c3.89,3.89,8.97,5.84,15.23,5.84s11.59-1.94,15.48-5.84c5.08-5.08,7.61-15.82,7.61-32.23Z"/><path class="b" d="M490.25,532.63h-32.99v-79.94c0-8.29-2.16-14.38-6.47-18.27-4.31-3.89-9.43-5.84-15.35-5.84s-11.08,1.9-15.48,5.71c-4.4,3.81-6.6,9.69-6.6,17.64v80.7h-32.99v-79.94c0-8.29-2.16-14.38-6.47-18.27-4.31-3.89-9.43-5.84-15.35-5.84s-11.29,1.95-15.61,5.84c-4.31,3.89-6.47,9.98-6.47,18.27v79.94h-32.99v-132.21h32.23v12.18c8.79-9.14,19.79-13.7,32.99-13.7,15.23,0,26.9,5.58,35.02,16.75,10.66-11.17,23.85-16.75,39.59-16.75,13.87,0,24.7,3.89,32.48,11.67,9.64,9.64,14.46,22.17,14.46,37.56v84.5Z"/><path class="b" d="M625.76,532.63h-32.23v-11.42c-4.57,4.57-9.26,7.83-14.08,9.77s-10.96,2.92-18.4,2.92c-14.72,0-25.97-3.89-33.75-11.67-7.28-7.61-10.91-17.51-10.91-29.69,0-11.17,3.85-20.34,11.55-27.53s18.91-10.78,33.62-10.78h31.21v-6.6c0-7.27-1.95-12.56-5.84-15.86s-10.15-4.95-18.78-4.95c-6.26,0-11.17.81-14.72,2.41-3.55,1.61-7.11,4.44-10.66,8.5l-21.06-20.56c6.26-6.93,12.94-11.71,20.05-14.34,7.11-2.62,16.32-3.93,27.66-3.93,37.56,0,56.34,15.57,56.34,46.69v87.04h0ZM592.77,483.91v-7.11h-26.14c-5.92,0-10.49,1.31-13.7,3.93-3.22,2.63-4.82,6.3-4.82,11.04,0,10.15,6.34,15.23,19.03,15.23,9.47,0,16.41-2.11,20.81-6.34,3.21-3.05,4.82-8.63,4.82-16.75Z"/><path class="b" d="M771.17,532.63h-32.99v-79.94c0-8.29-2.16-14.38-6.47-18.27-4.31-3.89-9.43-5.84-15.35-5.84s-11.29,1.95-15.61,5.84c-4.31,3.89-6.47,9.98-6.47,18.27v79.94h-32.99v-132.21h32.23v12.18c8.63-9.14,19.62-13.7,32.99-13.7s23.43,3.89,31.21,11.67c8.97,8.97,13.45,21.49,13.45,37.56v84.5h0Z"/><path class="b" d="M839.94,377.84h-33.75v-26.9h33.75v26.9ZM839.69,532.64h-32.99v-132.21h32.99v132.21Z"/><path class="b" d="M976.47,532.63h-32.23v-11.42c-4.57,4.57-9.26,7.83-14.08,9.77s-10.96,2.92-18.4,2.92c-14.72,0-25.97-3.89-33.75-11.67-7.28-7.61-10.91-17.51-10.91-29.69,0-11.17,3.85-20.34,11.55-27.53s18.91-10.78,33.62-10.78h31.21v-6.6c0-7.27-1.95-12.56-5.84-15.86s-10.15-4.95-18.78-4.95c-6.26,0-11.17.81-14.72,2.41-3.55,1.61-7.11,4.44-10.66,8.5l-21.06-20.56c6.26-6.93,12.94-11.71,20.05-14.34,7.11-2.62,16.32-3.93,27.66-3.93,37.56,0,56.34,15.57,56.34,46.69v87.04h0ZM943.48,483.91v-7.11h-26.14c-5.92,0-10.49,1.31-13.7,3.93-3.22,2.63-4.82,6.3-4.82,11.04,0,10.15,6.34,15.23,19.03,15.23,9.47,0,16.41-2.11,20.81-6.34,3.21-3.05,4.82-8.63,4.82-16.75Z"/></svg>