<?xml version="1.0" encoding="UTF-8"?>
<svg id="Layer_1" data-name="Layer 1" xmlns="http://www.w3.org/2000/svg" version="1.1" viewBox="0 0 566.9 283.5">
  <defs>
    <style>
      .cls-1 {
        fill: #231f20;
      }

      .cls-1, .cls-2, .cls-3 {
        stroke-width: 0px;
      }

      .cls-2 {
        fill: #fed20d;
      }

      .cls-3 {
        fill: #fff;
      }
    </style>
  </defs>
  <g>
    <g>
      <ellipse class="cls-3" cx="156.2" cy="143.3" rx="71.1" ry="69"/>
      <path class="cls-2" d="M227.9,141.8c-.1,29.5-18.1,58-45.1,70.1-50.3,22.5-107.1-15.4-107.6-70.1-.8-31.3,18.7-62.1,47.9-73.9,24-10.2,53.3-6.9,73.9,9.2,19.9,15,31.4,40,30.9,64.7h0ZM226.7,141.8c0-28.7-20-54.2-46.8-63.2-44.6-15.9-93.5,15.6-94.8,63.2-1.3,48.5,49.7,83.4,95.9,65.8,27.3-10,46.3-36.6,45.7-65.8h0Z"/>
    </g>
    <path class="cls-1" d="M213.6,34.9l14,2.1,59,104.7-59,104.7-14.9,2.2,60.4-106.9-59.4-106.7Z"/>
    <polygon class="cls-1" points="34.4 141.7 94.8 248.5 79.9 246.4 20.9 141.7 79.9 37 93.8 35 34.4 141.7"/>
    <g>
      <path class="cls-1" d="M123.7,136.3l-1.6,33.6-3.6,1-18.6-27.9,4.8-1.3,13.3,20.4.9-24.3,4.9-1.4Z"/>
      <path class="cls-1" d="M154,140.9c.2.6.5,1.7,1,3.3.5,1.6.8,2.8.9,3.4.1.6.3,1.5.6,2.6.2,1.2.3,2,.3,2.7,0,.6-.2,1.3-.3,2.1-.2.8-.5,1.6-.9,2.4-1.6,2.8-4,4.6-7.2,5.5-3.2.9-6.2.5-9-1-.8-.4-1.4-1-2-1.6-.6-.6-1-1.2-1.4-1.7-.4-.5-.8-1.3-1.1-2.4-.4-1.1-.7-1.9-.9-2.6-.2-.7-.5-1.8-.9-3.3-.4-1.6-.7-2.7-.9-3.3-.2-.7-.4-1.6-.6-2.7-.2-1.1-.3-2-.2-2.6,0-.6.2-1.4.4-2.2.2-.8.5-1.6.9-2.4,1.6-2.8,4-4.6,7.2-5.5,3.2-.9,6.2-.6,9,1,.8.4,1.4,1,2,1.6.6.6,1,1.2,1.4,1.7.4.5.7,1.3,1.1,2.4.4,1.1.7,2,.9,2.5ZM151.7,152.1c-.1-1.3-.6-3.5-1.5-6.6-.9-3.1-1.6-5.2-2.1-6.4-.6-1.2-1.3-2-2.3-2.6-1.5-.9-3.2-1.1-5.1-.6s-3.2,1.6-4,3.2c-.5,1-.7,2.2-.6,3.5.1,1.3.6,3.5,1.5,6.6.9,3.1,1.6,5.2,2.2,6.4.6,1.2,1.3,2,2.3,2.6,1.5.9,3.2,1.1,5.1.6s3.2-1.6,4-3.2c.5-1,.7-2.2.6-3.5Z"/>
      <path class="cls-1" d="M178.9,125.5l-8.5,2.4,7.4,26.5-4.7,1.3-7.4-26.5-8.5,2.4-1.2-4.2,21.6-6,1.2,4.2Z"/>
      <path class="cls-1" d="M213.3,144.5l-19.6,5.5-8.5-30.7,19.6-5.5,1.2,4.2-15,4.2,2.5,9,12.8-3.5,1.2,4.1-12.8,3.5,2.6,9.2,15-4.2,1.2,4.2Z"/>
    </g>
  </g>
  <g>
    <path class="cls-1" d="M406.2,79.8l-17,46.4h-9.1l-17.1-46.4h12.2l9.5,28.7,9.4-28.7h12.2Z"/>
    <path class="cls-1" d="M454,103c0,4.5-.4,8.1-1.1,10.8-.7,2.8-2.1,5.2-4.1,7.3-3.6,3.8-8.4,5.7-14.4,5.7s-10.8-1.9-14.4-5.7c-2-2.1-3.4-4.5-4.1-7.3-.7-2.8-1.1-6.4-1.1-10.8s.4-8,1.1-10.7c.7-2.8,2.1-5.2,4.1-7.3,3.6-3.8,8.4-5.7,14.4-5.7s10.9,1.9,14.4,5.7c2,2.1,3.4,4.5,4.1,7.3.7,2.8,1.1,6.3,1.1,10.7ZM442.4,103c0-5.7-.9-9.5-2.7-11.2-1.4-1.4-3.2-2.1-5.4-2.1s-4,.7-5.3,2.1-2.7,5.5-2.7,11.2.9,9.5,2.7,11.3c1.4,1.4,3.1,2.1,5.3,2.1s4.1-.7,5.4-2.1,2.7-5.6,2.7-11.3Z"/>
    <path class="cls-1" d="M490.3,126.3h-6.3c-4.4,0-7.7-1.3-10-3.9-2.3-2.6-3.4-5.7-3.4-9.4v-23h-4.9v-8.8h4.9v-13.7h11.6v13.7h8.2v8.8h-8.2v22.3c0,2.8,1.3,4.2,4,4.2h4.2v9.8Z"/>
    <path class="cls-1" d="M412.8,167.1c.6,3.3.9,8.8.9,16.6s-.3,13.3-.9,16.6c-.6,3.3-2.3,6.3-5,9-4.4,4.4-9.8,6.6-16.2,6.6s-11.8-2.2-16.2-6.6c-2.7-2.7-4.4-5.8-5-9-.6-3.3-.9-8.8-.9-16.6s.3-13.3.9-16.6c.6-3.3,2.3-6.3,5-9,4.4-4.4,9.8-6.6,16.2-6.6s11.8,2.2,16.2,6.6c2.7,2.7,4.4,5.8,5,9ZM406.2,198.3c.5-2.8.8-7.6.8-14.6s-.3-11.8-.8-14.6c-.5-2.8-1.8-5.1-3.7-7.1-2.9-3-6.6-4.5-11-4.5s-8.1,1.5-11,4.5c-1.9,2-3.1,4.3-3.7,7.1-.5,2.8-.8,7.6-.8,14.6s.3,11.8.8,14.6c.5,2.8,1.8,5.1,3.7,7.1,2.9,3,6.6,4.5,11,4.5s8.1-1.5,11-4.5c1.9-2,3.1-4.3,3.7-7.1Z"/>
    <path class="cls-1" d="M481.1,215.4h-6.4l-33.7-50.9v50.9h-6.8v-63.5h6.4l33.7,50.7v-50.7h6.8v63.5Z"/>
    <path class="cls-1" d="M546.1,192.2c0,7.1-1.8,12.5-5.4,16.4-4.5,4.9-10.2,7.3-16.9,7.3s-11.8-2.2-16.2-6.6c-2.7-2.7-4.4-5.8-5-9-.6-3.3-.9-8.8-.9-16.6s.3-13.3.9-16.6c.6-3.3,2.3-6.3,5-9,4.4-4.4,9.8-6.6,16.2-6.6s10.9,1.7,14.8,5.2c4,3.5,6.4,8.1,7.4,13.8h-6.8c-.9-4-2.7-7.2-5.4-9.5-2.7-2.3-6.1-3.4-10-3.4s-8.1,1.5-11,4.5c-1.9,2-3.1,4.3-3.7,7.1-.5,2.8-.8,7.6-.8,14.6s.3,11.8.8,14.6c.5,2.8,1.8,5.2,3.7,7.1,2.9,3,6.5,4.5,11,4.5s9.1-1.8,12-5.4c2.4-2.9,3.6-6.7,3.6-11.5v-4.8h-15.6v-6h22.4v10.1Z"/>
  </g>
</svg>