<?xml version="1.0" encoding="UTF-8"?>
<svg id="Layer_1" xmlns="http://www.w3.org/2000/svg" version="1.1" viewBox="0 0 300 300">
  <!-- Generator: Adobe Illustrator 29.0.1, SVG Export Plug-In . SVG Version: 2.1.0 Build 192)  -->
  <defs>
    <style>
      .st0 {
        fill: #231f20;
      }

      .st1 {
        fill: #fed20d;
      }

      .st2 {
        fill: #fff;
      }
    </style>
  </defs>
  <path class="st0" d="M209.9,43.2l14,2.1,59,104.7-59,104.7-14.9,2.2,60.4-106.9-59.4-106.7h-.1Z"/>
  <g>
    <ellipse class="st2" cx="152.4" cy="151.6" rx="71.1" ry="69"/>
    <path class="st1" d="M224.1,150.1c-.1,29.5-18.1,58-45.1,70.1-50.3,22.5-107.1-15.4-107.6-70.1-.8-31.3,18.7-62.1,47.9-73.9,24-10.2,53.3-6.9,73.9,9.2,19.9,15,31.4,40,30.9,64.7h0ZM222.9,150.1c0-28.7-20-54.2-46.8-63.2-44.6-15.9-93.5,15.6-94.8,63.2-1.3,48.5,49.7,83.4,95.9,65.8,27.3-10,46.3-36.6,45.7-65.8h0Z"/>
    <path class="st0" d="M119.9,144.6l-1.6,33.6-3.6,1-18.6-27.9,4.8-1.3,13.3,20.4.9-24.3,4.9-1.4h-.1Z"/>
    <path class="st0" d="M150.2,149.1c.2.6.5,1.7,1,3.3s.8,2.8.9,3.4c.1.6.3,1.5.6,2.6.2,1.2.3,2,.3,2.7s-.2,1.3-.3,2.1c-.2.8-.5,1.6-.9,2.4-1.6,2.8-4,4.6-7.2,5.5s-6.2.5-9-1c-.8-.4-1.4-1-2-1.6s-1-1.2-1.4-1.7-.8-1.3-1.1-2.4c-.4-1.1-.7-1.9-.9-2.6-.2-.7-.5-1.8-.9-3.3-.4-1.6-.7-2.7-.9-3.3-.2-.7-.4-1.6-.6-2.7-.2-1.1-.3-2-.2-2.6,0-.6.2-1.4.4-2.2s.5-1.6.9-2.4c1.6-2.8,4-4.6,7.2-5.5s6.2-.6,9,1c.8.4,1.4,1,2,1.6s1,1.2,1.4,1.7.7,1.3,1.1,2.4c.4,1.1.7,2,.9,2.5h-.3ZM147.9,160.4c-.1-1.3-.6-3.5-1.5-6.6s-1.6-5.2-2.1-6.4c-.6-1.2-1.3-2-2.3-2.6-1.5-.9-3.2-1.1-5.1-.6s-3.2,1.6-4,3.2c-.5,1-.7,2.2-.6,3.5.1,1.3.6,3.5,1.5,6.6s1.6,5.2,2.2,6.4c.6,1.2,1.3,2,2.3,2.6,1.5.9,3.2,1.1,5.1.6s3.2-1.6,4-3.2c.5-1,.7-2.2.6-3.5h0Z"/>
    <path class="st0" d="M175.1,133.8l-8.5,2.4,7.4,26.5-4.7,1.3-7.4-26.5-8.5,2.4-1.2-4.2,21.6-6,1.2,4.2h0Z"/>
    <path class="st0" d="M209.6,152.8l-19.6,5.5-8.5-30.7,19.6-5.5,1.2,4.2-15,4.2,2.5,9,12.8-3.5,1.2,4.1-12.8,3.5,2.6,9.2,15-4.2,1.2,4.2h-.2Z"/>
  </g>
  <polygon class="st0" points="30.6 150 91.1 256.8 76.1 254.6 17.1 150 76.1 45.3 90.1 43.3 30.6 150"/>
</svg>