<svg width="1031" height="128" viewBox="0 0 1031 128" fill="none" xmlns="http://www.w3.org/2000/svg">
<path d="M754.377 18.0039L740.788 20.0082L716 64.0109L740.788 108.014L754.377 110.018L727.996 64.0109L754.377 18.0039ZM789.203 18.0039L802.792 20.0082L827.58 64.0109L802.792 107.991L789.203 109.995L815.585 63.9881L789.203 18.0039Z" fill="black"/>
<path d="M754.377 18.0043L771.79 16V64.0112H727.996L754.377 18.0043Z" fill="#F3F3F3"/>
<path d="M754.377 109.996L771.79 112V64.0115H727.996L754.377 109.996Z" fill="#D9D9D9"/>
<path d="M789.203 109.996L771.79 112V64.0115H815.584L789.203 109.996Z" fill="#BCBCBC"/>
<path d="M789.203 18.0043L771.79 16V64.0112H815.584L789.203 18.0043Z" fill="#E9E9E9"/>
<path d="M1029.21 88.2903V98.2661C1029.28 99.0405 1029.39 99.5643 1029.59 99.8832C1029.78 100.179 1030.19 100.407 1030.8 100.521L1030.62 105.372C1028.98 105.372 1027.68 105.258 1026.7 105.03C1025.72 104.803 1024.75 104.347 1023.74 103.687C1021.45 104.803 1019.1 105.372 1016.69 105.372C1011.73 105.372 1009.24 102.753 1009.24 97.4917C1009.24 94.9408 1009.93 93.1188 1011.32 92.0483C1012.68 90.9779 1014.8 90.3402 1017.64 90.1579L1022.77 89.7708V88.2903C1022.77 87.2882 1022.54 86.6277 1022.11 86.2405C1021.65 85.8761 1020.94 85.6939 1019.94 85.6939L1010.93 86.0811L1010.75 81.617C1014.16 80.6832 1017.42 80.2277 1020.51 80.2277C1023.61 80.2277 1025.82 80.8655 1027.18 82.1409C1028.52 83.4163 1029.21 85.4661 1029.21 88.2903ZM882.938 83.5074C884.622 81.321 887.467 80.2277 891.428 80.2277C895.389 80.2277 898.234 81.321 899.918 83.5074C901.603 85.6939 902.468 88.7914 902.468 92.7544C902.468 101.181 898.78 105.372 891.428 105.372C884.076 105.372 880.388 101.159 880.388 92.7544C880.411 88.7914 881.253 85.7167 882.938 83.5074ZM965.792 88.2903V98.2661C965.86 99.0405 965.974 99.5643 966.179 99.8832C966.361 100.179 966.771 100.407 967.385 100.521L967.203 105.372C965.564 105.372 964.267 105.258 963.288 105.03C962.309 104.803 961.331 104.347 960.329 103.687C958.03 104.803 955.686 105.372 953.273 105.372C948.311 105.372 945.83 102.753 945.83 97.4917C945.83 94.9408 946.512 93.1188 947.901 92.0483C949.267 90.9779 951.383 90.3402 954.229 90.1579L959.35 89.7708V88.2903C959.35 87.2882 959.123 86.6277 958.667 86.2405C958.212 85.8761 957.507 85.6939 956.505 85.6939L947.491 86.0811L947.309 81.617C950.723 80.6832 953.978 80.2277 957.074 80.2277C960.17 80.2277 962.378 80.8655 963.743 82.1409C965.109 83.4163 965.792 85.4661 965.792 88.2903ZM913.598 104.803H907.179V80.7971H913.553V82.1409C915.761 80.8655 917.65 80.2277 919.221 80.2277C921.815 80.2277 923.818 80.9793 925.207 82.4825C928.143 80.9793 930.829 80.2277 933.265 80.2277C936.429 80.2277 938.637 81.1388 939.866 82.9836C941.095 84.8284 941.71 87.7665 941.71 91.7978V104.803H935.291V91.98C935.291 89.9302 935.063 88.427 934.631 87.4476C934.175 86.4683 933.288 85.99 931.945 85.99C930.92 85.99 929.668 86.2177 928.212 86.6505L927.483 86.901C927.62 89.2925 927.665 91.1145 927.665 92.3672V104.803H921.246V92.4583C921.246 90.0896 921.041 88.427 920.632 87.4476C920.222 86.4683 919.312 85.99 917.9 85.99C916.648 85.99 915.419 86.2177 914.213 86.6505L913.644 86.8555V104.803H913.598ZM978.357 104.803H971.938V80.7971H978.311V82.1409C980.496 80.8655 982.477 80.2277 984.298 80.2277C987.484 80.2277 989.692 81.1615 990.921 83.0519C992.128 84.9423 992.742 87.8576 992.742 91.7978V104.803H986.323V91.98C986.323 89.9302 986.073 88.427 985.595 87.4476C985.117 86.4683 984.161 85.99 982.727 85.99C981.407 85.99 980.155 86.2177 978.948 86.6505L978.379 86.8555V104.803H978.357ZM998.456 104.803V80.7971H1004.87V104.803H998.456V104.803ZM859.493 93.8476V104.78H852.869V72.1651H865.525C873.195 72.1651 877.042 75.7409 877.042 82.9153C877.042 87.1743 875.449 90.3174 872.239 92.3216L876.883 104.803H869.644L865.866 93.8704H859.493V93.8476ZM955.003 94.622C953.204 94.7814 952.317 95.738 952.317 97.4917C952.317 99.2455 953.091 100.134 954.661 100.134C955.868 100.134 957.211 99.9515 958.645 99.5643L959.373 99.3821V94.2348L955.003 94.622ZM1018.42 94.622C1016.62 94.7814 1015.73 95.738 1015.73 97.4917C1015.73 99.2455 1016.51 100.134 1018.08 100.134C1019.28 100.134 1020.63 99.9515 1022.06 99.5643L1022.79 99.3821V94.2348L1018.42 94.622ZM887.923 98.175C888.583 99.3366 889.743 99.906 891.451 99.906C893.158 99.906 894.319 99.3366 894.979 98.175C895.639 97.0134 895.958 95.2142 895.958 92.7544C895.958 90.2946 895.639 88.4953 894.979 87.3793C894.319 86.2633 893.158 85.6939 891.451 85.6939C889.766 85.6939 888.583 86.2633 887.923 87.3793C887.262 88.4953 886.944 90.2946 886.944 92.7544C886.944 95.2142 887.262 97.0362 887.923 98.175ZM869.121 86.7644C869.895 85.8078 870.282 84.5323 870.282 82.9836C870.282 81.4121 869.872 80.1594 869.053 79.2484C868.233 78.3146 867.05 77.8591 865.525 77.8591H859.47V88.222H865.616C867.209 88.1992 868.37 87.7209 869.121 86.7644ZM998.456 77.7224V71.2085H1004.87V77.7224H998.456ZM873.537 56.2677C870.145 56.9965 867.095 57.3609 864.386 57.3609C861.678 57.3609 859.493 57.0193 857.854 56.3588C856.215 55.6983 854.94 54.605 854.007 53.1474C853.074 51.667 852.436 49.9588 852.095 47.9545C851.753 45.973 851.571 43.4677 851.571 40.4613C851.571 34.1524 852.459 29.7567 854.234 27.2742C856.01 24.7916 859.288 23.5617 864.045 23.5617C866.799 23.5617 869.986 23.9945 873.582 24.86L873.4 30.1439C870.236 29.6884 867.596 29.4379 865.502 29.4379C863.408 29.4379 861.905 29.7112 861.018 30.2806C860.13 30.85 859.47 31.8976 859.015 33.4692C858.582 35.0407 858.377 37.7055 858.377 41.4862C858.377 45.267 858.81 47.8862 859.697 49.3439C860.585 50.8015 862.338 51.5303 864.978 51.5303C867.619 51.5303 870.418 51.3026 873.4 50.8698L873.537 56.2677ZM936.269 50.7332C937.021 51.3937 938.113 51.7125 939.502 51.7125C942.483 51.7125 945.124 51.6214 947.468 51.4164L948.811 51.2798L948.902 56.0399C945.215 56.9282 941.892 57.3837 938.933 57.3837C935.313 57.3837 932.696 56.4271 931.057 54.5139C929.418 52.6008 928.621 49.4805 928.621 45.1531C928.621 36.5439 932.149 32.2393 939.228 32.2393C946.194 32.2393 949.676 35.8606 949.676 43.0805L949.198 47.5446H935.086C935.131 49.0022 935.518 50.0727 936.269 50.7332ZM879.25 35.519C880.935 33.3325 883.78 32.2393 887.74 32.2393C891.701 32.2393 894.546 33.3325 896.231 35.519C897.915 37.7055 898.78 40.7802 898.78 44.7659C898.78 53.1929 895.093 57.3837 887.74 57.3837C880.388 57.3837 876.701 53.1702 876.701 44.7659C876.701 40.7802 877.566 37.7055 879.25 35.519ZM923.864 23.1973V56.7915H917.491V55.7894C915.26 56.8371 913.325 57.3609 911.686 57.3609C908.204 57.3609 905.768 56.3588 904.402 54.3317C903.037 52.3047 902.331 49.1161 902.331 44.7659C902.331 40.393 903.15 37.2044 904.812 35.2229C906.451 33.2186 908.955 32.2165 912.278 32.2165C913.302 32.2165 914.714 32.3759 916.557 32.6948L917.468 32.877V23.1973H923.864ZM983.068 35.519C984.753 33.3325 987.598 32.2393 991.559 32.2393C995.519 32.2393 998.365 33.3325 1000.05 35.519C1001.73 37.7055 1002.6 40.7802 1002.6 44.7659C1002.6 53.1929 998.934 57.3837 991.559 57.3837C984.207 57.3837 980.519 53.1702 980.519 44.7659C980.519 40.7802 981.361 37.7055 983.068 35.519ZM1007.29 56.7915V32.8087H1013.66V35.3596C1016.35 33.7653 1018.9 32.7176 1021.33 32.2393V38.7304C1018.74 39.277 1016.51 39.8236 1014.66 40.4158L1013.71 40.7574V56.8371H1007.29V56.7915ZM972.416 38.2749V56.7915H965.997V38.2749H963.402V32.8087H965.997V31.7382C965.997 28.2763 966.498 25.9076 967.522 24.5866C968.546 23.2656 970.367 22.6279 972.985 22.6279C974.146 22.6279 975.625 22.7874 977.446 23.1062L978.448 23.2429L978.357 28.4813C976.945 28.413 975.762 28.3902 974.806 28.3902C973.85 28.3902 973.212 28.6407 972.894 29.1646C972.575 29.6884 972.416 30.5539 972.416 31.8065V32.8087H978.22V38.2749H972.416V38.2749ZM988.031 50.1866C988.691 51.3481 989.852 51.9175 991.559 51.9175C993.266 51.9175 994.427 51.3481 995.087 50.1866C995.747 49.025 996.066 47.2257 996.066 44.7659C996.066 42.3062 995.747 40.5069 995.087 39.3909C994.427 38.2749 993.266 37.7055 991.559 37.7055C989.852 37.7055 988.691 38.2749 988.031 39.3909C987.37 40.5069 987.052 42.3062 987.052 44.7659C987.052 47.2257 987.37 49.025 988.031 50.1866ZM884.212 50.1866C884.872 51.3481 886.033 51.9175 887.74 51.9175C889.448 51.9175 890.608 51.3481 891.269 50.1866C891.929 49.025 892.247 47.2257 892.247 44.7659C892.247 42.3062 891.929 40.5069 891.269 39.3909C890.608 38.2749 889.448 37.7055 887.74 37.7055C886.056 37.7055 884.872 38.2749 884.212 39.3909C883.552 40.5069 883.234 42.3062 883.234 44.7659C883.234 47.2257 883.552 49.025 884.212 50.1866ZM916.762 51.0293L917.445 50.8926V38.2749C915.692 37.956 914.122 37.7966 912.733 37.7966C910.138 37.7966 908.841 40.0969 908.841 44.6976C908.841 47.2029 909.137 48.9794 909.706 50.0271C910.275 51.0748 911.231 51.6214 912.551 51.6214C913.871 51.6214 915.305 51.4164 916.762 51.0293ZM943.348 42.6478C943.348 40.7346 943.053 39.3909 942.438 38.6393C941.823 37.8877 940.776 37.5233 939.251 37.5233C937.726 37.5233 936.656 37.9104 936.042 38.7076C935.427 39.482 935.086 40.803 935.063 42.6706H943.348V42.6478Z" fill="black"/>
<path d="M620.727 49.8426C624.3 49.8426 626.794 50.8504 628.209 52.866C629.659 54.8468 630.385 58.3394 630.385 63.3436C630.385 68.3479 629.482 71.8752 627.678 73.9255C625.91 75.9411 622.637 76.9489 617.862 76.9489C616.376 76.9489 613.917 76.8099 610.486 76.5319L609 76.3755V39H612.927V51.667C615.615 50.4507 618.215 49.8426 620.727 49.8426ZM617.809 73.4564C621.275 73.4564 623.557 72.6918 624.654 71.1628C625.786 69.5989 626.352 66.9752 626.352 63.2915C626.352 59.6078 625.91 57.0362 625.025 55.5766C624.141 54.0823 622.567 53.3351 620.303 53.3351C618.251 53.3351 616.146 53.7174 613.988 54.4819L612.927 54.8468V73.1957C615.226 73.3695 616.853 73.4564 617.809 73.4564Z" fill="black"/>
<path d="M633.97 50.3638H637.95L644.583 73.0394H646.334L653.02 50.3638H657L645.963 88H641.983L645.432 76.4277H641.505L633.97 50.3638Z" fill="black"/>
<path d="M549.592 92.5799C548.842 90.3304 547.842 88.1809 546.592 86.1813C539.744 75.2337 531.296 65.5858 522.098 56.6377C520.398 54.9881 518.448 54.0883 516.049 54.2382C514.099 54.3382 512.2 54.0883 510.25 53.9883C499.103 53.4384 487.955 52.9385 476.807 52.4386C467.359 52.0387 457.862 51.6388 448.414 51.1889C448.664 50.9889 448.913 50.789 449.113 50.589C452.213 50.3391 455.312 50.0391 458.411 49.7892C466.91 49.1393 475.408 48.5395 483.956 47.8396C493.504 47.0398 503.052 46.14 512.6 45.3402C521.898 44.5403 531.246 43.7905 540.544 43.0407C541.643 42.9407 542.093 42.5908 541.743 41.391C541.093 39.1415 540.094 37.092 538.894 35.1424C532.145 24.3447 523.997 14.6968 514.749 5.9987C512.95 4.29907 511.1 2.64943 508.301 2.64943C492.954 2.59944 477.607 2.64943 462.261 2.39948C440.615 2.04956 418.92 2.34949 397.275 1.99957C373.33 1.59965 349.335 2.04956 325.34 1.64964C304.645 1.24973 283.899 1.64964 263.154 1.29972C241.059 0.899805 218.963 1.29972 196.868 0.899805C176.273 0.549881 155.677 0.899805 135.082 0.549881C111.637 0.149967 88.1417 0.499892 64.6468 0.199957C44.5511 -0.0999783 24.5055 0.0499892 4.50982 0C-0.839017 0 -0.889006 0 1.56046 4.89894C5.35964 12.4973 10.7085 18.9959 16.1573 25.3945C17.657 27.1941 19.2066 28.9437 21.1062 31.0433C18.2069 31.0433 15.8074 31.0433 13.4079 31.0433C12.2082 31.0433 11.7083 31.4432 12.1082 32.7929C12.708 34.6925 13.4579 36.5421 14.5077 38.2417C21.3562 49.7892 30.2542 59.737 39.8022 69.085C41.1519 70.4347 42.8515 71.2845 44.8011 71.3845C53.4992 71.7844 62.2473 72.1344 70.9454 72.5343C77.7939 72.8342 84.6425 73.0842 91.491 73.3841C92.1408 73.4341 92.7907 73.4341 93.3906 73.934C84.8424 74.5838 76.3942 75.2337 67.9461 75.9335C59.048 76.6334 50.1999 77.4332 41.3518 78.1331C29.6044 79.0329 17.9069 80.2826 6.20945 81.4823C4.65979 81.6323 4.6098 82.2822 5.00971 83.4319C5.70956 85.4815 6.65936 87.481 7.80911 89.3306C14.5077 100.428 23.0058 110.076 32.4038 118.974C33.7535 120.224 35.2032 121.524 37.2027 121.624C39.2023 121.724 41.2019 121.874 43.2014 121.874C56.8485 121.974 70.5455 122.273 84.1925 122.573C98.8394 122.923 113.536 123.123 128.183 123.373C142.58 123.623 157.027 123.873 171.424 124.123C179.172 124.273 186.92 124.173 194.619 124.423C208.915 124.873 223.212 125.023 237.459 125.223C251.356 125.423 265.303 125.623 279.2 125.973C293.947 126.323 308.644 126.523 323.391 126.773C337.638 127.022 351.835 127.322 366.081 127.472C381.178 127.622 396.275 128.122 411.372 127.972C411.722 127.972 412.121 127.972 412.471 127.972C413.421 128.022 413.521 127.472 413.321 126.773C413.121 126.073 412.821 125.373 412.521 124.673C410.272 119.474 407.073 114.875 403.623 110.476C401.174 107.377 398.624 104.327 395.975 101.078C399.124 100.978 402.024 100.878 404.923 100.728C413.571 100.228 422.219 99.9283 430.917 99.5784C439.615 99.2285 448.364 98.8286 457.062 98.4287C465.16 98.0787 473.258 97.6788 481.356 97.3289C493.004 96.829 504.651 96.3291 516.299 95.8292C523.897 95.5293 531.496 95.3293 539.094 94.9294C542.093 94.7794 545.093 94.6795 548.092 94.5795C549.492 94.5295 550.092 94.0796 549.592 92.5799ZM444.864 51.1389C444.814 51.1389 444.814 51.1889 444.764 51.1889C444.764 51.1889 444.764 51.1889 444.864 51.1389C444.814 51.1389 444.814 51.1389 444.864 51.1389ZM444.714 51.2389C444.764 51.2389 444.814 51.2389 444.864 51.2389C444.864 51.2389 444.814 51.2389 444.814 51.2889C444.964 51.3889 444.664 51.2889 444.714 51.2389Z" fill="#FFEB4F"/>
<path d="M114.936 27.244C117.614 27.244 119.785 25.0731 119.785 22.3951C119.785 19.7171 117.614 17.5461 114.936 17.5461C112.258 17.5461 110.087 19.7171 110.087 22.3951C110.087 25.0731 112.258 27.244 114.936 27.244Z" fill="black"/>
<path d="M129.483 27.244C132.161 27.244 134.332 25.0731 134.332 22.3951C134.332 19.7171 132.161 17.5461 129.483 17.5461C126.805 17.5461 124.634 19.7171 124.634 22.3951C124.634 25.0731 126.805 27.244 129.483 27.244Z" fill="black"/>
<path d="M143.98 27.244C146.658 27.244 148.829 25.0731 148.829 22.3951C148.829 19.7171 146.658 17.5461 143.98 17.5461C141.302 17.5461 139.131 19.7171 139.131 22.3951C139.131 25.0731 141.302 27.244 143.98 27.244Z" fill="black"/>
<path d="M129.083 40.8412C131.761 40.8412 133.932 38.6703 133.932 35.9923C133.932 33.3143 131.761 31.1433 129.083 31.1433C126.405 31.1433 124.234 33.3143 124.234 35.9923C124.234 38.6703 126.405 40.8412 129.083 40.8412Z" fill="black"/>
<path d="M143.58 40.8412C146.258 40.8412 148.429 38.6703 148.429 35.9923C148.429 33.3143 146.258 31.1433 143.58 31.1433C140.902 31.1433 138.731 33.3143 138.731 35.9923C138.731 38.6703 140.902 40.8412 143.58 40.8412Z" fill="black"/>
<path d="M158.127 40.8412C160.805 40.8412 162.975 38.6703 162.975 35.9923C162.975 33.3143 160.805 31.1433 158.127 31.1433C155.449 31.1433 153.278 33.3143 153.278 35.9923C153.278 38.6703 155.449 40.8412 158.127 40.8412Z" fill="black"/>
<path d="M142.73 54.4882C145.408 54.4882 147.579 52.3172 147.579 49.6392C147.579 46.9612 145.408 44.7903 142.73 44.7903C140.052 44.7903 137.881 46.9612 137.881 49.6392C137.881 52.3172 140.052 54.4882 142.73 54.4882Z" fill="black"/>
<path d="M157.227 54.4882C159.905 54.4882 162.076 52.3172 162.076 49.6392C162.076 46.9612 159.905 44.7903 157.227 44.7903C154.549 44.7903 152.378 46.9612 152.378 49.6392C152.378 52.3172 154.549 54.4882 157.227 54.4882Z" fill="black"/>
<path d="M171.774 54.4882C174.452 54.4882 176.623 52.3172 176.623 49.6392C176.623 46.9612 174.452 44.7903 171.774 44.7903C169.096 44.7903 166.925 46.9612 166.925 49.6392C166.925 52.3172 169.096 54.4882 171.774 54.4882Z" fill="black"/>
<path d="M156.377 68.1352C159.055 68.1352 161.226 65.9642 161.226 63.2862C161.226 60.6082 159.055 58.4373 156.377 58.4373C153.699 58.4373 151.528 60.6082 151.528 63.2862C151.528 65.9642 153.699 68.1352 156.377 68.1352Z" fill="black"/>
<path d="M170.874 68.1352C173.552 68.1352 175.723 65.9642 175.723 63.2862C175.723 60.6082 173.552 58.4373 170.874 58.4373C168.196 58.4373 166.025 60.6082 166.025 63.2862C166.025 65.9642 168.196 68.1352 170.874 68.1352Z" fill="black"/>
<path d="M185.371 68.1352C188.049 68.1352 190.22 65.9642 190.22 63.2862C190.22 60.6082 188.049 58.4373 185.371 58.4373C182.693 58.4373 180.522 60.6082 180.522 63.2862C180.522 65.9642 182.693 68.1352 185.371 68.1352Z" fill="black"/>
<path d="M142.73 81.7323C145.408 81.7323 147.579 79.5614 147.579 76.8834C147.579 74.2054 145.408 72.0344 142.73 72.0344C140.052 72.0344 137.881 74.2054 137.881 76.8834C137.881 79.5614 140.052 81.7323 142.73 81.7323Z" fill="black"/>
<path d="M157.227 81.7323C159.905 81.7323 162.076 79.5614 162.076 76.8834C162.076 74.2054 159.905 72.0344 157.227 72.0344C154.549 72.0344 152.378 74.2054 152.378 76.8834C152.378 79.5614 154.549 81.7323 157.227 81.7323Z" fill="black"/>
<path d="M171.774 81.7323C174.452 81.7323 176.623 79.5614 176.623 76.8834C176.623 74.2054 174.452 72.0344 171.774 72.0344C169.096 72.0344 166.925 74.2054 166.925 76.8834C166.925 79.5614 169.096 81.7323 171.774 81.7323Z" fill="black"/>
<path d="M129.083 95.4293C131.761 95.4293 133.932 93.2584 133.932 90.5804C133.932 87.9024 131.761 85.7314 129.083 85.7314C126.405 85.7314 124.234 87.9024 124.234 90.5804C124.234 93.2584 126.405 95.4293 129.083 95.4293Z" fill="black"/>
<path d="M143.58 95.4293C146.258 95.4293 148.429 93.2584 148.429 90.5804C148.429 87.9024 146.258 85.7314 143.58 85.7314C140.902 85.7314 138.731 87.9024 138.731 90.5804C138.731 93.2584 140.902 95.4293 143.58 95.4293Z" fill="black"/>
<path d="M158.127 95.4293C160.805 95.4293 162.975 93.2584 162.975 90.5804C162.975 87.9024 160.805 85.7314 158.127 85.7314C155.449 85.7314 153.278 87.9024 153.278 90.5804C153.278 93.2584 155.449 95.4293 158.127 95.4293Z" fill="black"/>
<path d="M114.936 109.076C117.614 109.076 119.785 106.905 119.785 104.227C119.785 101.549 117.614 99.3784 114.936 99.3784C112.258 99.3784 110.087 101.549 110.087 104.227C110.087 106.905 112.258 109.076 114.936 109.076Z" fill="black"/>
<path d="M129.483 109.076C132.161 109.076 134.332 106.905 134.332 104.227C134.332 101.549 132.161 99.3784 129.483 99.3784C126.805 99.3784 124.634 101.549 124.634 104.227C124.634 106.905 126.805 109.076 129.483 109.076Z" fill="black"/>
<path d="M143.98 109.076C146.658 109.076 148.829 106.905 148.829 104.227C148.829 101.549 146.658 99.3784 143.98 99.3784C141.302 99.3784 139.131 101.549 139.131 104.227C139.131 106.905 141.302 109.076 143.98 109.076Z" fill="black"/>
<path d="M203.767 17.5461H168.524L215.014 63.7361L168.524 109.926H203.767L249.957 63.7361L203.767 17.5461Z" fill="black"/>
<path d="M291.598 18.646H298.796L290.948 52.5386H278.25L270.402 18.696H277.601L283.499 46.5899H285.749L291.598 18.646Z" fill="black"/>
<path d="M326.89 48.8893C324.79 51.6887 321.141 53.0884 315.992 53.0884C310.843 53.0884 307.244 51.6887 305.095 48.8893C302.995 46.0899 301.945 41.6908 301.945 35.7421C301.945 29.7934 302.995 25.3444 305.095 22.445C307.194 19.5456 310.843 18.0959 315.992 18.0959C321.141 18.0959 324.74 19.5456 326.89 22.445C328.989 25.3444 330.039 29.7934 330.039 35.7421C330.039 41.6908 328.989 46.0899 326.89 48.8893ZM310.493 44.5402C311.493 46.2898 313.293 47.1397 315.992 47.1397C318.692 47.1397 320.491 46.2898 321.491 44.5402C322.491 42.7906 322.941 39.8912 322.941 35.7921C322.941 31.693 322.441 28.6936 321.441 26.8441C320.441 24.9945 318.642 24.0447 315.942 24.0447C313.293 24.0447 311.443 24.9945 310.443 26.8441C309.444 28.6936 308.944 31.693 308.944 35.7921C309.044 39.8412 309.544 42.7906 310.493 44.5402Z" fill="black"/>
<path d="M333.189 24.7447V18.646H358.083V24.6947H349.135V52.4887H342.287V24.7447H333.189Z" fill="black"/>
<path d="M296.696 108.626C294.597 111.426 290.948 112.825 285.799 112.825C280.65 112.825 277.051 111.426 274.901 108.626C272.802 105.827 271.752 101.428 271.752 95.4792C271.752 89.4805 272.802 85.0814 274.901 82.1821C277.001 79.2827 280.65 77.833 285.799 77.833C290.948 77.833 294.547 79.2827 296.696 82.1821C298.796 85.0814 299.846 89.5305 299.846 95.4792C299.896 101.428 298.846 105.827 296.696 108.626ZM280.35 104.277C281.35 106.027 283.149 106.877 285.849 106.877C288.548 106.877 290.348 106.027 291.348 104.277C292.347 102.528 292.797 99.6283 292.797 95.5292C292.797 91.4301 292.297 88.4307 291.298 86.5811C290.298 84.7315 288.498 83.7817 285.799 83.7817C283.149 83.7817 281.3 84.7315 280.3 86.5811C279.3 88.4307 278.8 91.4301 278.8 95.5292C278.85 99.5783 279.35 102.528 280.35 104.277Z" fill="black"/>
<path d="M306.394 112.226V78.3831H317.992L326.14 106.277H326.64V78.3831H333.489V112.226H322.191L313.743 84.3318H313.243V112.226H306.394Z" fill="black"/>
<path d="M355.634 100.078V94.1294H365.482V111.726C360.733 112.475 356.883 112.875 353.934 112.875C348.635 112.875 345.036 111.476 343.036 108.626C341.037 105.827 340.087 101.328 340.087 95.1792C340.087 89.0305 341.137 84.6315 343.186 81.8821C345.236 79.1827 348.735 77.783 353.684 77.783C356.783 77.783 360.083 78.1329 363.682 78.8327L365.482 79.1826L365.282 84.5315C361.282 84.0816 358.033 83.8816 355.484 83.8816C352.934 83.8816 351.185 84.1816 350.135 84.7814C349.085 85.3813 348.335 86.4811 347.885 88.0807C347.385 89.6804 347.186 92.4298 347.186 96.3289C347.186 100.228 347.685 102.977 348.635 104.527C349.585 106.077 351.585 106.877 354.584 106.877L358.733 106.677V100.128H355.634V100.078Z" fill="black"/>
</svg>
