<?xml version="1.0" encoding="UTF-8"?>
<svg id="Layer_1" data-name="Layer 1" xmlns="http://www.w3.org/2000/svg" version="1.1" viewBox="0 0 283.5 283.5">
  <defs>
    <style>
      .cls-1 {
        fill: #231f20;
      }

      .cls-1, .cls-2, .cls-3 {
        stroke-width: 0px;
      }

      .cls-2 {
        fill: #fed20d;
      }

      .cls-3 {
        fill: #fff;
      }
    </style>
  </defs>
  <g>
    <ellipse class="cls-3" cx="144.2" cy="143.3" rx="71.1" ry="69"/>
    <path class="cls-2" d="M215.9,141.8c-.1,29.5-18.1,58-45.1,70.1-50.3,22.5-107.1-15.4-107.6-70.1-.8-31.3,18.7-62.1,47.9-73.9,24-10.2,53.3-6.9,73.9,9.2,19.9,15,31.4,40,30.9,64.7h0ZM214.7,141.8c0-28.7-20-54.2-46.8-63.2-44.6-15.9-93.5,15.6-94.8,63.2-1.3,48.5,49.7,83.4,95.9,65.8,27.3-10,46.3-36.6,45.7-65.8h0Z"/>
  </g>
  <path class="cls-1" d="M201.6,34.9l14,2.1,59,104.7-59,104.7-14.9,2.2,60.4-106.9-59.4-106.7Z"/>
  <polygon class="cls-1" points="22.4 141.7 82.8 248.5 67.9 246.4 8.9 141.7 67.9 37 81.8 35 22.4 141.7"/>
  <g>
    <path class="cls-1" d="M111.7,136.3l-1.6,33.6-3.6,1-18.6-27.9,4.8-1.3,13.3,20.4.9-24.3,4.9-1.4Z"/>
    <path class="cls-1" d="M142,140.9c.2.6.5,1.7,1,3.3.5,1.6.8,2.8.9,3.4.1.6.3,1.5.6,2.6.2,1.2.3,2,.3,2.7,0,.6-.2,1.3-.3,2.1-.2.8-.5,1.6-.9,2.4-1.6,2.8-4,4.6-7.2,5.5-3.2.9-6.2.5-9-1-.8-.4-1.4-1-2-1.6-.6-.6-1-1.2-1.4-1.7-.4-.5-.8-1.3-1.1-2.4-.4-1.1-.7-1.9-.9-2.6-.2-.7-.5-1.8-.9-3.3-.4-1.6-.7-2.7-.9-3.3-.2-.7-.4-1.6-.6-2.7-.2-1.1-.3-2-.2-2.6,0-.6.2-1.4.4-2.2.2-.8.5-1.6.9-2.4,1.6-2.8,4-4.6,7.2-5.5,3.2-.9,6.2-.6,9,1,.8.4,1.4,1,2,1.6.6.6,1,1.2,1.4,1.7.4.5.7,1.3,1.1,2.4.4,1.1.7,2,.9,2.5ZM139.7,152.1c-.1-1.3-.6-3.5-1.5-6.6-.9-3.1-1.6-5.2-2.1-6.4-.6-1.2-1.3-2-2.3-2.6-1.5-.9-3.2-1.1-5.1-.6s-3.2,1.6-4,3.2c-.5,1-.7,2.2-.6,3.5.1,1.3.6,3.5,1.5,6.6.9,3.1,1.6,5.2,2.2,6.4.6,1.2,1.3,2,2.3,2.6,1.5.9,3.2,1.1,5.1.6s3.2-1.6,4-3.2c.5-1,.7-2.2.6-3.5Z"/>
    <path class="cls-1" d="M166.9,125.5l-8.5,2.4,7.4,26.5-4.7,1.3-7.4-26.5-8.5,2.4-1.2-4.2,21.6-6,1.2,4.2Z"/>
    <path class="cls-1" d="M201.4,144.5l-19.6,5.5-8.5-30.7,19.6-5.5,1.2,4.2-15,4.2,2.5,9,12.8-3.5,1.2,4.1-12.8,3.5,2.6,9.2,15-4.2,1.2,4.2Z"/>
  </g>
</svg>